<mxfile host="Electron" modified="2025-04-11T18:47:33.264Z" agent="Mozilla/5.0 (Macintosh; Intel Mac OS X 10_15_7) AppleWebKit/537.36 (KHTML, like Gecko) draw.io/22.1.2 Chrome/114.0.5735.289 Electron/25.9.4 Safari/537.36" etag="s-S8Luo9VnpHZ3s3kYcB" version="22.1.2" type="device">
  <diagram name="Page-1" id="H4HyDNVvdLOVw11NYthd">
    <mxGraphModel dx="1389" dy="854" grid="1" gridSize="10" guides="1" tooltips="1" connect="1" arrows="1" fold="1" page="1" pageScale="1.75" pageWidth="850" pageHeight="1100" math="0" shadow="0">
      <root>
        <mxCell id="0" />
        <mxCell id="1" parent="0" />
        <mxCell id="-tIdYaJw1umGb3Z7ZzmA-2" value="" style="html=1;shadow=0;dashed=0;align=center;verticalAlign=middle;shape=mxgraph.arrows2.arrow;dy=0;dx=30;notch=30;fontSize=10;strokeWidth=7;container=0;" parent="1" vertex="1">
          <mxGeometry x="437.5" y="69.99" width="550" height="350" as="geometry" />
        </mxCell>
        <mxCell id="-tIdYaJw1umGb3Z7ZzmA-4" value="&lt;font style=&quot;font-size: 30px;&quot;&gt;&lt;span style=&quot;background-color: initial;&quot;&gt;&lt;span style=&quot;&quot;&gt;&lt;b&gt;Preparing data exported from proteomics software&lt;br&gt;&lt;/b&gt;&lt;span style=&quot;white-space: pre;&quot;&gt;&amp;nbsp;&amp;nbsp;&amp;nbsp;&amp;nbsp;&lt;/span&gt;&lt;/span&gt;- prepare_peaks()&lt;br style=&quot;&quot;&gt;&lt;/span&gt;&lt;span style=&quot;&quot;&gt;&lt;span style=&quot;white-space: pre;&quot;&gt;&amp;nbsp;&amp;nbsp;&amp;nbsp;&amp;nbsp;&lt;/span&gt;&lt;/span&gt;- prepare_pd()&lt;br&gt;&amp;nbsp; &amp;nbsp; - prepare_fragpipe()&lt;br&gt;&lt;b style=&quot;border-color: var(--border-color);&quot;&gt;&lt;br&gt;Calculating all possible cleavages of peptide library&lt;br style=&quot;border-color: var(--border-color);&quot;&gt;&lt;/b&gt;&lt;span style=&quot;white-space: pre;&quot;&gt;&amp;nbsp;&amp;nbsp;&amp;nbsp;&amp;nbsp;&lt;/span&gt;- calculate_all_cleavages()&lt;br&gt;&lt;/font&gt;" style="text;html=1;strokeColor=none;fillColor=none;align=left;verticalAlign=middle;whiteSpace=wrap;rounded=0;fontSize=10;container=0;" parent="1" vertex="1">
          <mxGeometry x="505.41" y="139.99" width="472.09" height="199.65" as="geometry" />
        </mxCell>
        <mxCell id="-tIdYaJw1umGb3Z7ZzmA-31" value="&lt;b&gt;&lt;font style=&quot;font-size: 40px;&quot;&gt;Data Preparation&lt;/font&gt;&lt;/b&gt;" style="text;html=1;strokeColor=none;fillColor=none;align=center;verticalAlign=middle;whiteSpace=wrap;rounded=0;container=0;" parent="1" vertex="1">
          <mxGeometry x="447.5" y="9.99" width="501.02" height="50.68" as="geometry" />
        </mxCell>
        <mxCell id="-tIdYaJw1umGb3Z7ZzmA-32" value="&lt;b style=&quot;&quot;&gt;&lt;font style=&quot;font-size: 40px;&quot;&gt;Statistics&lt;/font&gt;&lt;/b&gt;" style="text;html=1;strokeColor=none;fillColor=none;align=center;verticalAlign=middle;whiteSpace=wrap;rounded=0;container=0;" parent="1" vertex="1">
          <mxGeometry x="8" y="464.21000000000004" width="449.5" height="45.57" as="geometry" />
        </mxCell>
        <mxCell id="-tIdYaJw1umGb3Z7ZzmA-57" value="&lt;b style=&quot;border-color: var(--border-color);&quot;&gt;&lt;font style=&quot;font-size: 40px;&quot;&gt;Visualization&lt;/font&gt;&lt;/b&gt;" style="text;html=1;strokeColor=none;fillColor=none;align=center;verticalAlign=middle;whiteSpace=wrap;rounded=0;container=0;" parent="1" vertex="1">
          <mxGeometry x="477.5" y="461.65000000000003" width="970" height="50.68" as="geometry" />
        </mxCell>
        <mxCell id="-tIdYaJw1umGb3Z7ZzmA-62" value="&lt;b&gt;&lt;font style=&quot;font-size: 40px;&quot;&gt;Data Processing&lt;/font&gt;&lt;/b&gt;" style="text;html=1;strokeColor=none;fillColor=none;align=center;verticalAlign=middle;whiteSpace=wrap;rounded=0;container=0;" parent="1" vertex="1">
          <mxGeometry x="967.5" y="9.99" width="470" height="50.68" as="geometry" />
        </mxCell>
        <mxCell id="-tIdYaJw1umGb3Z7ZzmA-11" value="" style="html=1;shadow=0;dashed=0;align=center;verticalAlign=middle;shape=mxgraph.arrows2.arrow;dy=0;dx=30;notch=30;fontSize=10;strokeWidth=7;container=0;" parent="1" vertex="1">
          <mxGeometry x="477.5" y="519.59" width="1002.5" height="364.18" as="geometry" />
        </mxCell>
        <mxCell id="-tIdYaJw1umGb3Z7ZzmA-16" style="edgeStyle=orthogonalEdgeStyle;rounded=0;orthogonalLoop=1;jettySize=auto;html=1;exitX=0;exitY=0.5;exitDx=0;exitDy=0;fontSize=10;" parent="1" edge="1">
          <mxGeometry relative="1" as="geometry">
            <mxPoint x="299.68043474741427" y="650.1245282268624" as="sourcePoint" />
            <mxPoint x="299.68043474741427" y="650.1245282268624" as="targetPoint" />
          </mxGeometry>
        </mxCell>
        <mxCell id="-tIdYaJw1umGb3Z7ZzmA-61" value="" style="html=1;shadow=0;dashed=0;align=center;verticalAlign=middle;shape=mxgraph.arrows2.arrow;dy=0;dx=30;notch=30;fontSize=10;strokeWidth=7;container=0;" parent="1" vertex="1">
          <mxGeometry x="977.5" y="69.99" width="502.5" height="350" as="geometry" />
        </mxCell>
        <mxCell id="-tIdYaJw1umGb3Z7ZzmA-68" value="&lt;font style=&quot;font-size: 30px;&quot;&gt;&lt;b&gt;Data transformation, normalization, and imputation&lt;br&gt;&lt;/b&gt;- process_qf()&lt;br&gt;&lt;br&gt;&lt;b&gt;Convert to tidy format&lt;br&gt;&lt;/b&gt;- mspms_tidy()&lt;br&gt;&lt;br&gt;&lt;/font&gt;" style="text;html=1;strokeColor=none;fillColor=none;align=left;verticalAlign=middle;whiteSpace=wrap;rounded=0;fontSize=10;container=0;" parent="1" vertex="1">
          <mxGeometry x="1017.5" y="79.99" width="450" height="330" as="geometry" />
        </mxCell>
        <mxCell id="-tIdYaJw1umGb3Z7ZzmA-6" value="" style="html=1;shadow=0;dashed=0;align=center;verticalAlign=middle;shape=mxgraph.arrows2.arrow;dy=0;dx=30;notch=30;fontSize=10;strokeWidth=7;container=0;" parent="1" vertex="1">
          <mxGeometry x="7.5" y="519.99" width="480" height="363.78" as="geometry" />
        </mxCell>
        <mxCell id="yvTvaHK7StXBv4bvej6U-2" value="&lt;font style=&quot;font-size: 30px;&quot;&gt;&lt;span style=&quot;background-color: initial;&quot;&gt;&lt;b&gt;Calculate log2 fold change and perform T-tests&lt;br&gt;&lt;/b&gt;&lt;span style=&quot;white-space: pre;&quot;&gt;&#x9;&lt;/span&gt;- log2fc_t_test()&lt;br&gt;&lt;/span&gt;&lt;br&gt;&lt;b&gt;Calculate log2 fold change and statistics using limma.&lt;/b&gt;&lt;br&gt;&lt;span style=&quot;white-space: pre;&quot;&gt;&#x9;&lt;/span&gt;- limma_stats()&lt;br&gt;&lt;br&gt;&lt;/font&gt;" style="text;html=1;strokeColor=none;fillColor=none;align=left;verticalAlign=middle;whiteSpace=wrap;rounded=0;fontSize=10;container=0;" parent="1" vertex="1">
          <mxGeometry x="71.07000000000001" y="619.99" width="416.43" height="180" as="geometry" />
        </mxCell>
        <mxCell id="yvTvaHK7StXBv4bvej6U-4" value="&lt;blockquote style=&quot;margin: 0px 0px 0px 40px; border: none; padding: 0px; font-size: 30px;&quot;&gt;&lt;b style=&quot;background-color: initial;&quot;&gt;Volcano plot&lt;/b&gt;&lt;br&gt;&lt;/blockquote&gt;&lt;blockquote style=&quot;margin: 0px 0px 0px 40px; border: none; padding: 0px; font-size: 30px;&quot;&gt;&lt;font style=&quot;font-size: 30px;&quot;&gt;-plot_volcano()&lt;/font&gt;&lt;/blockquote&gt;&lt;blockquote style=&quot;margin: 0px 0px 0px 40px; border: none; padding: 0px; font-size: 30px;&quot;&gt;&lt;font style=&quot;font-size: 30px;&quot;&gt;&lt;br&gt;&lt;/font&gt;&lt;/blockquote&gt;&lt;blockquote style=&quot;margin: 0px 0px 0px 40px; border: none; padding: 0px; font-size: 30px;&quot;&gt;&lt;font style=&quot;font-size: 30px;&quot;&gt;&lt;b&gt;Time course&lt;/b&gt;&lt;/font&gt;&lt;/blockquote&gt;&lt;blockquote style=&quot;margin: 0px 0px 0px 40px; border: none; padding: 0px; font-size: 30px;&quot;&gt;&lt;font style=&quot;font-size: 30px;&quot;&gt;- plot_time_course()&lt;/font&gt;&lt;/blockquote&gt;&lt;blockquote style=&quot;margin: 0px 0px 0px 40px; border: none; padding: 0px; font-size: 30px;&quot;&gt;&lt;font style=&quot;font-size: 30px;&quot;&gt;&lt;br&gt;&lt;/font&gt;&lt;/blockquote&gt;&lt;blockquote style=&quot;margin: 0px 0px 0px 40px; border: none; padding: 0px; font-size: 30px;&quot;&gt;&lt;font style=&quot;font-size: 30px;&quot;&gt;&lt;b&gt;Cleavage position plot&lt;/b&gt;&lt;/font&gt;&lt;/blockquote&gt;&lt;blockquote style=&quot;margin: 0px 0px 0px 40px; border: none; padding: 0px; font-size: 30px;&quot;&gt;&lt;font style=&quot;font-size: 30px;&quot;&gt;- plot_cleavage_pos()&lt;/font&gt;&lt;/blockquote&gt;&lt;blockquote style=&quot;margin: 0px 0px 0px 40px; border: none; padding: 0px; font-size: 30px;&quot;&gt;&lt;br&gt;&lt;/blockquote&gt;&lt;font style=&quot;font-size: 20px;&quot;&gt;&lt;font style=&quot;font-size: 20px;&quot;&gt;&lt;span style=&quot;background-color: initial;&quot;&gt;&lt;br style=&quot;&quot;&gt;&lt;/span&gt;&lt;br&gt;&lt;/font&gt;&lt;br&gt;&lt;/font&gt;" style="text;html=1;strokeColor=none;fillColor=none;align=left;verticalAlign=middle;whiteSpace=wrap;rounded=0;fontSize=10;container=0;" parent="1" vertex="1">
          <mxGeometry x="800" y="546.88" width="370" height="390" as="geometry" />
        </mxCell>
        <mxCell id="yvTvaHK7StXBv4bvej6U-5" value="" style="shape=image;verticalLabelPosition=bottom;labelBackgroundColor=default;verticalAlign=top;aspect=fixed;imageAspect=0;image=data:image/svg+xml,PHN2ZyB4bWxucz0iaHR0cDovL3d3dy53My5vcmcvMjAwMC9zdmciIGlkPSJzdmc1IiB2ZXJzaW9uPSIxLjEiIHZpZXdCb3g9IjAgMCAxMjAuNjU0ODcgMTM5LjI2ODM5IiBoZWlnaHQ9IjUyNi4zNjg3MSIgd2lkdGg9IjQ1Ni4wMTg0Ij4mI3hhOyAgJiN4YTsgIDxkZWZzIGlkPSJkZWZzMiI+JiN4YTsgICAgPHJlY3QgaWQ9InJlY3Q4Njc2IiBoZWlnaHQ9IjU5LjEyMjg4MyIgd2lkdGg9IjU1LjQyNzcwNCIgeT0iNTYyLjU5MTE5IiB4PSI4NTEuNzM5MDEiLz4mI3hhOyAgICA8cmVjdCBpZD0icmVjdDg2NzAiIGhlaWdodD0iNTYuMzUxNDk4IiB3aWR0aD0iNTkuMTIyODgzIiB5PSI1MzAuMjU4MzYiIHg9Ijc1OC40MzU3MyIvPiYjeGE7ICAgIDxyZWN0IGlkPSJyZWN0ODY2NCIgaGVpZ2h0PSI2NS41ODk0NDciIHdpZHRoPSIxMzMuMDI2NDkiIHk9IjUwMS42MjA3IiB4PSI2MTcuMDk1MDkiLz4mI3hhOyAgICA8cmVjdCBpZD0icmVjdDU3NCIgaGVpZ2h0PSIyNjMuMDcxNjYiIHdpZHRoPSI2MjMuNTc3MjciIHk9IjQzOC40NTI3OSIgeD0iMTMzLjk3MTY4Ii8+JiN4YTsgICAgPHJlY3QgaWQ9InJlY3Q1NjQiIGhlaWdodD0iMjU4LjE5OTk4IiB3aWR0aD0iNzA2LjM5NjE4IiB5PSI4ODkuMDg0NzgiIHg9IjQ2Mi44MTEyOCIvPiYjeGE7ICAgIDxyZWN0IGlkPSJyZWN0NDU2IiBoZWlnaHQ9IjExOS4zNTY1OSIgd2lkdGg9IjU5NC4zNDcxMSIgeT0iODY5LjU5ODAyIiB4PSIxNzUuMzgxMSIvPiYjeGE7ICA8L2RlZnM+JiN4YTsgIDxnIHRyYW5zZm9ybT0idHJhbnNsYXRlKC0xODEuMzU0NDQsLTUuNzY1NzA2KSIgaWQ9ImxheWVyMSI+JiN4YTsgICAgPHRleHQgc3R5bGU9ImZvbnQtc2l6ZToxNnB4O2ZvbnQtZmFtaWx5OkFyaWFsOy1pbmtzY2FwZS1mb250LXNwZWNpZmljYXRpb246J0FyaWFsLCBOb3JtYWwnO3RleHQtYWxpZ246Y2VudGVyO3doaXRlLXNwYWNlOnByZTtzaGFwZS1pbnNpZGU6dXJsKCNyZWN0NDU2KTtkaXNwbGF5OmlubGluZTtmaWxsOiNmZmQ1ZDU7c3Ryb2tlLXdpZHRoOjEuMjE3MDE7c3Ryb2tlLW9wYWNpdHk6MC4xMDU4ODIiIGlkPSJ0ZXh0NDU0IiB0cmFuc2Zvcm09InNjYWxlKDAuMjY0NTgzMzMpIiB4bWw6c3BhY2U9InByZXNlcnZlIi8+JiN4YTsgICAgPHRleHQgc3R5bGU9ImZvbnQtc2l6ZToxNnB4O2ZvbnQtZmFtaWx5OkFyaWFsOy1pbmtzY2FwZS1mb250LXNwZWNpZmljYXRpb246J0FyaWFsLCBOb3JtYWwnO3RleHQtYWxpZ246Y2VudGVyO3doaXRlLXNwYWNlOnByZTtzaGFwZS1pbnNpZGU6dXJsKCNyZWN0NTY0KTtkaXNwbGF5OmlubGluZTtmaWxsOiMwMDAwMDA7c3Ryb2tlLXdpZHRoOjEuMjE3MDE7c3Ryb2tlLW9wYWNpdHk6MC4xMDU4ODIiIGlkPSJ0ZXh0NTYyIiB0cmFuc2Zvcm09InNjYWxlKDAuMjY0NTgzMzMpIiB4bWw6c3BhY2U9InByZXNlcnZlIi8+JiN4YTsgICAgPHRleHQgaWQ9InRleHQ1NzAiIHk9IjEzNC42OTczNiIgeD0iODEuMjA1MTA5IiBzdHlsZT0iZm9udC1zaXplOjQuMjMzMzNweDtmb250LWZhbWlseTpBcmlhbDstaW5rc2NhcGUtZm9udC1zcGVjaWZpY2F0aW9uOidBcmlhbCwgTm9ybWFsJzt0ZXh0LWFsaWduOmNlbnRlcjt0ZXh0LWFuY2hvcjptaWRkbGU7ZmlsbDojMDAwMDAwO3N0cm9rZS13aWR0aDowLjMyMjAwMTtzdHJva2Utb3BhY2l0eTowLjEwNTg4MiIgeG1sOnNwYWNlPSJwcmVzZXJ2ZSI+PHRzcGFuIHN0eWxlPSJzdHJva2Utd2lkdGg6MC4zMjIiIHk9IjEzNC42OTczNiIgeD0iODEuMjA1MTA5IiBpZD0idHNwYW41NjgiLz48L3RleHQ+JiN4YTsgICAgPHRleHQgc3R5bGU9ImZvbnQtc2l6ZTozMnB4O2ZvbnQtZmFtaWx5OkFyaWFsOy1pbmtzY2FwZS1mb250LXNwZWNpZmljYXRpb246J0FyaWFsLCBOb3JtYWwnO3RleHQtYWxpZ246Y2VudGVyO3doaXRlLXNwYWNlOnByZTtzaGFwZS1pbnNpZGU6dXJsKCNyZWN0NTc0KTtkaXNwbGF5OmlubGluZTtmaWxsOiMwMDAwMDA7c3Ryb2tlLXdpZHRoOjEuMjE3MDE7c3Ryb2tlLW9wYWNpdHk6MC4xMDU4ODIiIGlkPSJ0ZXh0NTcyIiB0cmFuc2Zvcm09InNjYWxlKDAuMjY0NTgzMzMpIiB4bWw6c3BhY2U9InByZXNlcnZlIi8+JiN4YTsgICAgPHBhdGggdHJhbnNmb3JtPSJyb3RhdGUoLTAuNjM2OTI1NTEsMjQxLjI0NTg3LDc1LjQwMTg3OSkiIGQ9Ik0gMzAxLjYxODk3LDExMC44NTE0MiAyNDAuOTUyNywxNDUuMDM1MTQgMTgxLjAxNTYsMTA5LjU4ODQ2IDE4MS43NDQ3NywzOS45NTgwNzMgMjQyLjQxMTA0LDUuNzc0MzU2MSAzMDIuMzQ4MTQsNDEuMjIxMDMgWiIgaWQ9InBhdGgyMzgiIHN0eWxlPSJmaWxsOiMwMDAwMDA7c3Ryb2tlLXdpZHRoOjAuMzIyMDAxO3N0cm9rZS1vcGFjaXR5OjAuMTA1ODgyIi8+JiN4YTsgICAgPHBhdGggdHJhbnNmb3JtPSJtYXRyaXgoMC45MjAxODM5NywtMC4wMTYwNjE4NywwLjAxNTc1NjI4LDAuOTAyNjc2NiwxOC4xMDE5OTQsMTEuMjE1NjYyKSIgZD0iTSAzMDEuNjE4OTcsMTEwLjg1MTQyIDI0MC45NTI3LDE0NS4wMzUxNCAxODEuMDE1NiwxMDkuNTg4NDYgMTgxLjc0NDc3LDM5Ljk1ODA3MyAyNDIuNDExMDQsNS43NzQzNTYxIDMwMi4zNDgxNCw0MS4yMjEwMyBaIiBpZD0icGF0aDI0MCIgc3R5bGU9ImZpbGw6I2ZmZTZkNTtzdHJva2Utd2lkdGg6MC4zMjIwMDE7c3Ryb2tlLW9wYWNpdHk6MC4xMDU4ODIiLz4mI3hhOyAgICA8cGF0aCB0cmFuc2Zvcm09Im1hdHJpeCgwLjM3NjY5NjQ5LDAuOTI2MzM2NzQsLTAuOTM2NzYxNTMsMC4zNDk5NjgzNCwwLDApIiBkPSJtIDEzNC4xNDcxNSwtMjAyLjgyNDQxIGEgMTMuNDk2NzEzLDE0LjkyMzIxOSAwIDAgMSAtMTQuMzMyNzQsOS40NTE3NiAxMy40OTY3MTMsMTQuOTIzMjE5IDAgMCAxIC0xMS42ODQwMiwtMTMuMTc1MTEgMTMuNDk2NzEzLDE0LjkyMzIxOSAwIDAgMSA4LjgyODAzLC0xNS42NTg5OSAxMy40OTY3MTMsMTQuOTIzMjE5IDAgMCAxIDE1Ljg0MzE4LDUuNzk3NjYgbCAtMTEuMjU0NzIsOC4yMzY2OCB6IiBpZD0icGF0aDY4My03IiBzdHlsZT0iZmlsbDojNGQ0ZDRkO3N0cm9rZTojMDAwMDAwO3N0cm9rZS13aWR0aDowLjc2Nzg0MjtzdHJva2UtZGFzaGFycmF5Om5vbmU7c3Ryb2tlLW9wYWNpdHk6MSIvPiYjeGE7ICAgIDxnIHRyYW5zZm9ybT0icm90YXRlKC01MS4yMzYwNjgsMTMzLjI2MjczLC03Ni43MTYyMDgpIiBpZD0iZzM5MDMiPiYjeGE7ICAgICAgPGNpcmNsZSByPSIxLjA3NDE0MTYiIGN5PSI1Mi43ODA5NTYiIGN4PSI5NS43NzUyMTUiIGlkPSJwYXRoNzc3LTUzLTMtNy04LTIiIHN0eWxlPSJmaWxsOiNmZjU1NTU7c3Ryb2tlOiMwMDAwMDA7c3Ryb2tlLXdpZHRoOjAuMjA3O3N0cm9rZS1kYXNoYXJyYXk6bm9uZTtzdHJva2Utb3BhY2l0eToxIi8+JiN4YTsgICAgICA8Y2lyY2xlIHI9IjEuMDc0MTQxNiIgY3k9IjUyLjcyMTkzOSIgY3g9IjkxLjc3MzY1MSIgaWQ9InBhdGg3NzctNTMtMy03LTgtMi0yIiBzdHlsZT0iZmlsbDojZmY1NTU1O3N0cm9rZTojMDAwMDAwO3N0cm9rZS13aWR0aDowLjIwNztzdHJva2UtZGFzaGFycmF5Om5vbmU7c3Ryb2tlLW9wYWNpdHk6MSIvPiYjeGE7ICAgICAgPGNpcmNsZSByPSIxLjA3NDE0MTYiIGN5PSI1Mi4xMjM3MDMiIGN4PSI5My42NDUxODciIGlkPSJwYXRoNzc3LTUzLTMtNy04LTItNSIgc3R5bGU9ImZpbGw6I2ZmNTU1NTtzdHJva2U6IzAwMDAwMDtzdHJva2Utd2lkdGg6MC4yMDc7c3Ryb2tlLWRhc2hhcnJheTpub25lO3N0cm9rZS1vcGFjaXR5OjEiLz4mI3hhOyAgICAgIDxjaXJjbGUgcj0iMS4wNzQxNDE2IiBjeT0iNTIuNjgxODc3IiBjeD0iODkuNTcwNDk2IiBpZD0icGF0aDc3Ny01My0zLTctOC0yLTAiIHN0eWxlPSJmaWxsOiNmZjU1NTU7c3Ryb2tlOiMwMDAwMDA7c3Ryb2tlLXdpZHRoOjAuMjA3O3N0cm9rZS1kYXNoYXJyYXk6bm9uZTtzdHJva2Utb3BhY2l0eToxIi8+JiN4YTsgICAgICA8Y2lyY2xlIHI9IjEuMDc0MTQxNiIgY3k9IjUxLjQzMzUzMyIgY3g9Ijg1LjQ5MjUzOCIgaWQ9InBhdGg3NzctNTMtMy03LTgtMi0xIiBzdHlsZT0iZmlsbDojNGQ0ZDRkO3N0cm9rZTojMDAwMDAwO3N0cm9rZS13aWR0aDowLjIwNztzdHJva2UtZGFzaGFycmF5Om5vbmU7c3Ryb2tlLW9wYWNpdHk6MSIvPiYjeGE7ICAgICAgPGNpcmNsZSByPSIxLjA3NDE0MTYiIGN5PSI1Mi42NDE4MTkiIGN4PSI4Ny4zNjczNDgiIGlkPSJwYXRoNzc3LTUzLTMtNy04LTItMS03IiBzdHlsZT0iZmlsbDojNGQ0ZDRkO3N0cm9rZTojMDAwMDAwO3N0cm9rZS13aWR0aDowLjIwNztzdHJva2UtZGFzaGFycmF5Om5vbmU7c3Ryb2tlLW9wYWNpdHk6MSIvPiYjeGE7ICAgICAgPGNpcmNsZSByPSIxLjA3NDE0MTYiIGN5PSI1MS41MDM0NjgiIGN4PSI4My4zNzc3MDgiIGlkPSJwYXRoNzc3LTUzLTMtNy04LTItMS00IiBzdHlsZT0iZmlsbDojNGQ0ZDRkO3N0cm9rZTojMDAwMDAwO3N0cm9rZS13aWR0aDowLjIwNztzdHJva2UtZGFzaGFycmF5Om5vbmU7c3Ryb2tlLW9wYWNpdHk6MSIvPiYjeGE7ICAgICAgPGNpcmNsZSByPSIxLjA3NDE0MTYiIGN5PSI1MS4wODg0NDgiIGN4PSI4MS40MTYyMDYiIGlkPSJwYXRoNzc3LTUzLTMtNy04LTItMS00MyIgc3R5bGU9ImZpbGw6IzRkNGQ0ZDtzdHJva2U6IzAwMDAwMDtzdHJva2Utd2lkdGg6MC4yMDc7c3Ryb2tlLWRhc2hhcnJheTpub25lO3N0cm9rZS1vcGFjaXR5OjEiLz4mI3hhOyAgICAgIDxjaXJjbGUgcj0iMS4wNzQxNDE2IiBjeT0iNTIuMzAzMzAzIiBjeD0iNzkuNjc3OTg2IiBpZD0icGF0aDc3Ny01My0zLTctOC0yLTEtMCIgc3R5bGU9ImZpbGw6IzRkNGQ0ZDtzdHJva2U6IzAwMDAwMDtzdHJva2Utd2lkdGg6MC4yMDc7c3Ryb2tlLWRhc2hhcnJheTpub25lO3N0cm9rZS1vcGFjaXR5OjEiLz4mI3hhOyAgICAgIDxjaXJjbGUgcj0iMS4wNzQxNDE2IiBjeT0iNTMuNzU5ODExIiBjeD0iNzguMzE0NzIiIGlkPSJwYXRoNzc3LTUzLTMtNy04LTItMS03OSIgc3R5bGU9ImZpbGw6IzRkNGQ0ZDtzdHJva2U6IzAwMDAwMDtzdHJva2Utd2lkdGg6MC4yMDc7c3Ryb2tlLWRhc2hhcnJheTpub25lO3N0cm9rZS1vcGFjaXR5OjEiLz4mI3hhOyAgICAgIDxjaXJjbGUgcj0iMS4wNzQxNDE2IiBjeT0iNTMuMTQ2NDc3IiBjeD0iNzYuMzc0ODkzIiBpZD0icGF0aDc3Ny01My0zLTctOC0yLTEtOSIgc3R5bGU9ImZpbGw6IzRkNGQ0ZDtzdHJva2U6IzAwMDAwMDtzdHJva2Utd2lkdGg6MC4yMDc7c3Ryb2tlLWRhc2hhcnJheTpub25lO3N0cm9rZS1vcGFjaXR5OjEiLz4mI3hhOyAgICAgIDxjaXJjbGUgcj0iMS4wNzQxNDE2IiBjeT0iNTIuNTExNDY3IiBjeD0iNzQuMjM2NzU1IiBpZD0icGF0aDc3Ny01My0zLTctOC0yLTEtOTQiIHN0eWxlPSJmaWxsOiM0ZDRkNGQ7c3Ryb2tlOiMwMDAwMDA7c3Ryb2tlLXdpZHRoOjAuMjA3O3N0cm9rZS1kYXNoYXJyYXk6bm9uZTtzdHJva2Utb3BhY2l0eToxIi8+JiN4YTsgICAgICA8Y2lyY2xlIHI9IjEuMDc0MTQxNiIgY3k9IjUxLjcyMTQ4MSIgY3g9IjcyLjUxNjkyMiIgaWQ9InBhdGg3NzctNTMtMy03LTgtMi0xLTQxIiBzdHlsZT0iZmlsbDojNGQ0ZDRkO3N0cm9rZTojMDAwMDAwO3N0cm9rZS13aWR0aDowLjIwNztzdHJva2UtZGFzaGFycmF5Om5vbmU7c3Ryb2tlLW9wYWNpdHk6MSIvPiYjeGE7ICAgICAgPGNpcmNsZSByPSIxLjA3NDE0MTYiIGN5PSI1MS4wMTk4MjUiIGN4PSI3MC42ODcwODgiIGlkPSJwYXRoNzc3LTUzLTMtNy04LTItMS0yIiBzdHlsZT0iZmlsbDojNGQ0ZDRkO3N0cm9rZTojMDAwMDAwO3N0cm9rZS13aWR0aDowLjIwNztzdHJva2UtZGFzaGFycmF5Om5vbmU7c3Ryb2tlLW9wYWNpdHk6MSIvPiYjeGE7ICAgIDwvZz4mI3hhOyAgICA8ZyB0cmFuc2Zvcm09Im1hdHJpeCgtMC4xNDgyNDAzNSwtMC45ODgxMDMzMiwtMC45NDM0NTkyNiwwLjE1NTI1NTAyLDI4My42NTk3Miw5Ni4wNDU1OTQpIiBpZD0iZzQwMjUiPiYjeGE7ICAgICAgPGNpcmNsZSByPSIxLjA3NDE0MTYiIGN5PSI1NS4xMjYzMTIiIGN4PSI2NS45MjA4MDciIGlkPSJwYXRoNzc3LTUzLTMtNy04LTItNCIgc3R5bGU9ImZpbGw6I2ZmNTU1NTtzdHJva2U6IzAwMDAwMDtzdHJva2Utd2lkdGg6MC4yMDc7c3Ryb2tlLWRhc2hhcnJheTpub25lO3N0cm9rZS1vcGFjaXR5OjEiLz4mI3hhOyAgICAgIDxjaXJjbGUgcj0iMS4wNzQxNDE2IiBjeT0iNTUuMDY3MjkxIiBjeD0iNjEuOTE5MjQzIiBpZD0icGF0aDc3Ny01My0zLTctOC0yLTItNyIgc3R5bGU9ImZpbGw6I2ZmNTU1NTtzdHJva2U6IzAwMDAwMDtzdHJva2Utd2lkdGg6MC4yMDc7c3Ryb2tlLWRhc2hhcnJheTpub25lO3N0cm9rZS1vcGFjaXR5OjEiLz4mI3hhOyAgICAgIDxjaXJjbGUgcj0iMS4wNzQxNDE2IiBjeT0iNTQuNDY5MDU1IiBjeD0iNjMuNzkwNzc5IiBpZD0icGF0aDc3Ny01My0zLTctOC0yLTUtMyIgc3R5bGU9ImZpbGw6I2ZmNTU1NTtzdHJva2U6IzAwMDAwMDtzdHJva2Utd2lkdGg6MC4yMDc7c3Ryb2tlLWRhc2hhcnJheTpub25lO3N0cm9rZS1vcGFjaXR5OjEiLz4mI3hhOyAgICAgIDxjaXJjbGUgcj0iMS4wNzQxNDE2IiBjeT0iNTUuMDI3MjI5IiBjeD0iNTkuNzE2MDkxIiBpZD0icGF0aDc3Ny01My0zLTctOC0yLTAtMCIgc3R5bGU9ImZpbGw6I2ZmNTU1NTtzdHJva2U6IzAwMDAwMDtzdHJva2Utd2lkdGg6MC4yMDc7c3Ryb2tlLWRhc2hhcnJheTpub25lO3N0cm9rZS1vcGFjaXR5OjEiLz4mI3hhOyAgICAgIDxjaXJjbGUgcj0iMS4wNzQxNDE2IiBjeT0iNTMuNzc4ODg1IiBjeD0iNTUuNjM4MTM0IiBpZD0icGF0aDc3Ny01My0zLTctOC0yLTEtOTAiIHN0eWxlPSJmaWxsOiM0ZDRkNGQ7c3Ryb2tlOiMwMDAwMDA7c3Ryb2tlLXdpZHRoOjAuMjA3O3N0cm9rZS1kYXNoYXJyYXk6bm9uZTtzdHJva2Utb3BhY2l0eToxIi8+JiN4YTsgICAgICA8Y2lyY2xlIHI9IjEuMDc0MTQxNiIgY3k9IjU0Ljk4NzE3NSIgY3g9IjU3LjUxMjk0MyIgaWQ9InBhdGg3NzctNTMtMy03LTgtMi0xLTctMyIgc3R5bGU9ImZpbGw6IzRkNGQ0ZDtzdHJva2U6IzAwMDAwMDtzdHJva2Utd2lkdGg6MC4yMDc7c3Ryb2tlLWRhc2hhcnJheTpub25lO3N0cm9rZS1vcGFjaXR5OjEiLz4mI3hhOyAgICAgIDxjaXJjbGUgcj0iMS4wNzQxNDE2IiBjeT0iNTMuODQ4ODI0IiBjeD0iNTMuNTIzMzA0IiBpZD0icGF0aDc3Ny01My0zLTctOC0yLTEtNC0xIiBzdHlsZT0iZmlsbDojNGQ0ZDRkO3N0cm9rZTojMDAwMDAwO3N0cm9rZS13aWR0aDowLjIwNztzdHJva2UtZGFzaGFycmF5Om5vbmU7c3Ryb2tlLW9wYWNpdHk6MSIvPiYjeGE7ICAgICAgPGNpcmNsZSByPSIxLjA3NDE0MTYiIGN5PSI1My40MzM4MDQiIGN4PSI1MS41NjE4MDIiIGlkPSJwYXRoNzc3LTUzLTMtNy04LTItMS00My0xIiBzdHlsZT0iZmlsbDojNGQ0ZDRkO3N0cm9rZTojMDAwMDAwO3N0cm9rZS13aWR0aDowLjIwNztzdHJva2UtZGFzaGFycmF5Om5vbmU7c3Ryb2tlLW9wYWNpdHk6MSIvPiYjeGE7ICAgICAgPGNpcmNsZSByPSIxLjA3NDE0MTYiIGN5PSI1NC42NDg2NTkiIGN4PSI0OS44MjM1ODIiIGlkPSJwYXRoNzc3LTUzLTMtNy04LTItMS0wLTUiIHN0eWxlPSJmaWxsOiM0ZDRkNGQ7c3Ryb2tlOiMwMDAwMDA7c3Ryb2tlLXdpZHRoOjAuMjA3O3N0cm9rZS1kYXNoYXJyYXk6bm9uZTtzdHJva2Utb3BhY2l0eToxIi8+JiN4YTsgICAgICA8Y2lyY2xlIHI9IjEuMDc0MTQxNiIgY3k9IjU2LjEwNTE2NCIgY3g9IjQ4LjQ2MDMxNiIgaWQ9InBhdGg3NzctNTMtMy03LTgtMi0xLTc5LTMiIHN0eWxlPSJmaWxsOiM0ZDRkNGQ7c3Ryb2tlOiMwMDAwMDA7c3Ryb2tlLXdpZHRoOjAuMjA3O3N0cm9rZS1kYXNoYXJyYXk6bm9uZTtzdHJva2Utb3BhY2l0eToxIi8+JiN4YTsgICAgICA8Y2lyY2xlIHI9IjEuMDc0MTQxNiIgY3k9IjU3LjYwNTAxOSIgY3g9IjQ3LjQ5MzY4MyIgaWQ9InBhdGg3NzctNTMtMy03LTgtMi0xLTktOSIgc3R5bGU9ImZpbGw6IzRkNGQ0ZDtzdHJva2U6IzAwMDAwMDtzdHJva2Utd2lkdGg6MC4yMDc7c3Ryb2tlLWRhc2hhcnJheTpub25lO3N0cm9rZS1vcGFjaXR5OjEiLz4mI3hhOyAgICAgIDxjaXJjbGUgcj0iMS4wNzQxNDE2IiBjeT0iNTkuMzg4MjIyIiBjeD0iNDguMjAxOTE2IiBpZD0icGF0aDc3Ny01My0zLTctOC0yLTEtOTQtNiIgc3R5bGU9ImZpbGw6IzRkNGQ0ZDtzdHJva2U6IzAwMDAwMDtzdHJva2Utd2lkdGg6MC4yMDc7c3Ryb2tlLWRhc2hhcnJheTpub25lO3N0cm9rZS1vcGFjaXR5OjEiLz4mI3hhOyAgICAgIDxjaXJjbGUgcj0iMS4wNzQxNDE2IiBjeT0iNjEuMjM0Nzk4IiBjeD0iNTAuNDA4MzU2IiBpZD0icGF0aDc3Ny01My0zLTctOC0yLTEtNDEtMyIgc3R5bGU9ImZpbGw6IzRkNGQ0ZDtzdHJva2U6IzAwMDAwMDtzdHJva2Utd2lkdGg6MC4yMDc7c3Ryb2tlLWRhc2hhcnJheTpub25lO3N0cm9rZS1vcGFjaXR5OjEiLz4mI3hhOyAgICAgIDxjaXJjbGUgcj0iMS4wNzQxNDE2IiBjeT0iNTkuMjk2NjIzIiBjeD0iNTAuMTE4NDI3IiBpZD0icGF0aDc3Ny01My0zLTctOC0yLTEtMi0xIiBzdHlsZT0iZmlsbDojNGQ0ZDRkO3N0cm9rZTojMDAwMDAwO3N0cm9rZS13aWR0aDowLjIwNztzdHJva2UtZGFzaGFycmF5Om5vbmU7c3Ryb2tlLW9wYWNpdHk6MSIvPiYjeGE7ICAgIDwvZz4mI3hhOyAgICA8ZyB0cmFuc2Zvcm09InJvdGF0ZSgxNzIuMzAwMzMsMTYzLjA0NjE3LDUwLjA4MTU2NikiIGlkPSJnNDYxMiI+JiN4YTsgICAgICA8Y2lyY2xlIHRyYW5zZm9ybT0icm90YXRlKC01MS4yMzYwNjgpIiByPSIxLjA3NDE0MTYiIGN5PSIxMTguODc1NDkiIGN4PSI1Ni4wOTMwNzEiIGlkPSJwYXRoNzc3LTUzLTMtNy04LTItNC0xIiBzdHlsZT0iZmlsbDojZmY1NTU1O3N0cm9rZTojMDAwMDAwO3N0cm9rZS13aWR0aDowLjIwNztzdHJva2UtZGFzaGFycmF5Om5vbmU7c3Ryb2tlLW9wYWNpdHk6MSIvPiYjeGE7ICAgICAgPGNpcmNsZSB0cmFuc2Zvcm09InJvdGF0ZSgtNTEuMjM2MDY4KSIgcj0iMS4wNzQxNDE2IiBjeT0iMTIzLjAxOTUyIiBjeD0iNTQuNzQyODQ0IiBpZD0icGF0aDc3Ny01My0zLTctOC0yLTItNy0zIiBzdHlsZT0iZmlsbDojZmY1NTU1O3N0cm9rZTojMDAwMDAwO3N0cm9rZS13aWR0aDowLjIwNztzdHJva2UtZGFzaGFycmF5Om5vbmU7c3Ryb2tlLW9wYWNpdHk6MSIvPiYjeGE7ICAgICAgPGNpcmNsZSB0cmFuc2Zvcm09InJvdGF0ZSgtNTEuMjM2MDY4KSIgcj0iMS4wNzQxNDE2IiBjeT0iMTIxLjAxMzA1IiBjeD0iNTUuNjY0NDk3IiBpZD0icGF0aDc3Ny01My0zLTctOC0yLTUtMy0wIiBzdHlsZT0iZmlsbDojZmY1NTU1O3N0cm9rZTojMDAwMDAwO3N0cm9rZS13aWR0aDowLjIwNztzdHJva2UtZGFzaGFycmF5Om5vbmU7c3Ryb2tlLW9wYWNpdHk6MSIvPiYjeGE7ICAgICAgPGNpcmNsZSB0cmFuc2Zvcm09InJvdGF0ZSgtNTEuMjM2MDY4KSIgcj0iMS4wNzQxNDE2IiBjeT0iMTIyLjk3OTQ3IiBjeD0iNTIuNTM5Njg4IiBpZD0icGF0aDc3Ny01My0zLTctOC0yLTAtMC04IiBzdHlsZT0iZmlsbDojZmY1NTU1O3N0cm9rZTojMDAwMDAwO3N0cm9rZS13aWR0aDowLjIwNztzdHJva2UtZGFzaGFycmF5Om5vbmU7c3Ryb2tlLW9wYWNpdHk6MSIvPiYjeGE7ICAgICAgPGNpcmNsZSB0cmFuc2Zvcm09InJvdGF0ZSgtNTEuMjM2MDY4KSIgcj0iMS4wNzQxNDE2IiBjeT0iMTIxLjczMTEyIiBjeD0iNDguNDYxNzMxIiBpZD0icGF0aDc3Ny01My0zLTctOC0yLTEtOTAtNyIgc3R5bGU9ImZpbGw6IzRkNGQ0ZDtzdHJva2U6IzAwMDAwMDtzdHJva2Utd2lkdGg6MC4yMDc7c3Ryb2tlLWRhc2hhcnJheTpub25lO3N0cm9rZS1vcGFjaXR5OjEiLz4mI3hhOyAgICAgIDxjaXJjbGUgdHJhbnNmb3JtPSJyb3RhdGUoLTUxLjIzNjA2OCkiIHI9IjEuMDc0MTQxNiIgY3k9IjEyMi45Mzk0MSIgY3g9IjUwLjMzNjU0IiBpZD0icGF0aDc3Ny01My0zLTctOC0yLTEtNy0zLTYiIHN0eWxlPSJmaWxsOiM0ZDRkNGQ7c3Ryb2tlOiMwMDAwMDA7c3Ryb2tlLXdpZHRoOjAuMjA3O3N0cm9rZS1kYXNoYXJyYXk6bm9uZTtzdHJva2Utb3BhY2l0eToxIi8+JiN4YTsgICAgICA8Y2lyY2xlIHRyYW5zZm9ybT0icm90YXRlKC01MS4yMzYwNjgpIiByPSIxLjA3NDE0MTYiIGN5PSIxMjEuODAxMDYiIGN4PSI0Ni4zNDY5MDEiIGlkPSJwYXRoNzc3LTUzLTMtNy04LTItMS00LTEtMiIgc3R5bGU9ImZpbGw6IzRkNGQ0ZDtzdHJva2U6IzAwMDAwMDtzdHJva2Utd2lkdGg6MC4yMDc7c3Ryb2tlLWRhc2hhcnJheTpub25lO3N0cm9rZS1vcGFjaXR5OjEiLz4mI3hhOyAgICAgIDxjaXJjbGUgdHJhbnNmb3JtPSJyb3RhdGUoLTUxLjIzNjA2OCkiIHI9IjEuMDc0MTQxNiIgY3k9IjEyMS4zODYwNCIgY3g9IjQ0LjM4NTM5OSIgaWQ9InBhdGg3NzctNTMtMy03LTgtMi0xLTQzLTEtOSIgc3R5bGU9ImZpbGw6IzRkNGQ0ZDtzdHJva2U6IzAwMDAwMDtzdHJva2Utd2lkdGg6MC4yMDc7c3Ryb2tlLWRhc2hhcnJheTpub25lO3N0cm9rZS1vcGFjaXR5OjEiLz4mI3hhOyAgICAgIDxjaXJjbGUgdHJhbnNmb3JtPSJyb3RhdGUoLTUxLjIzNjA2OCkiIHI9IjEuMDc0MTQxNiIgY3k9IjExOS41MTQ1MSIgY3g9IjQzLjc4NzE3IiBpZD0icGF0aDc3Ny01My0zLTctOC0yLTEtMC01LTEiIHN0eWxlPSJmaWxsOiM0ZDRkNGQ7c3Ryb2tlOiMwMDAwMDA7c3Ryb2tlLXdpZHRoOjAuMjA3O3N0cm9rZS1kYXNoYXJyYXk6bm9uZTtzdHJva2Utb3BhY2l0eToxIi8+JiN4YTsgICAgICA8Y2lyY2xlIHRyYW5zZm9ybT0icm90YXRlKC01MS4yMzYwNjgpIiByPSIxLjA3NDE0MTYiIGN5PSIxMTYuMTkzMDMiIGN4PSI0MC45MzkxNTkiIGlkPSJwYXRoNzc3LTUzLTMtNy04LTItMS03OS0zLTQiIHN0eWxlPSJmaWxsOiM0ZDRkNGQ7c3Ryb2tlOiMwMDAwMDA7c3Ryb2tlLXdpZHRoOjAuMjA3O3N0cm9rZS1kYXNoYXJyYXk6bm9uZTtzdHJva2Utb3BhY2l0eToxIi8+JiN4YTsgICAgICA8Y2lyY2xlIHRyYW5zZm9ybT0icm90YXRlKC01MS4yMzYwNjgpIiByPSIxLjA3NDE0MTYiIGN5PSIxMTcuNDg5NjUiIGN4PSI0Mi43MDM5NzYiIGlkPSJwYXRoNzc3LTUzLTMtNy04LTItMS05LTktMSIgc3R5bGU9ImZpbGw6IzRkNGQ0ZDtzdHJva2U6IzAwMDAwMDtzdHJva2Utd2lkdGg6MC4yMDc7c3Ryb2tlLWRhc2hhcnJheTpub25lO3N0cm9rZS1vcGFjaXR5OjEiLz4mI3hhOyAgICAgIDxjaXJjbGUgdHJhbnNmb3JtPSJyb3RhdGUoLTUxLjIzNjA2OCkiIHI9IjEuMDc0MTQxNiIgY3k9IjExNS4xNjEzOSIgY3g9IjM4Ljg0NDM2IiBpZD0icGF0aDc3Ny01My0zLTctOC0yLTEtOTQtNi0yIiBzdHlsZT0iZmlsbDojNGQ0ZDRkO3N0cm9rZTojMDAwMDAwO3N0cm9rZS13aWR0aDowLjIwNztzdHJva2UtZGFzaGFycmF5Om5vbmU7c3Ryb2tlLW9wYWNpdHk6MSIvPiYjeGE7ICAgICAgPGNpcmNsZSB0cmFuc2Zvcm09InJvdGF0ZSgtNTEuMjM2MDY4KSIgcj0iMS4wNzQxNDE2IiBjeT0iMTEzLjQ0OTc2IiBjeD0iMzUuMTE4MDUiIGlkPSJwYXRoNzc3LTUzLTMtNy04LTItMS00MS0zLTUiIHN0eWxlPSJmaWxsOiM0ZDRkNGQ7c3Ryb2tlOiMwMDAwMDA7c3Ryb2tlLXdpZHRoOjAuMjA3O3N0cm9rZS1kYXNoYXJyYXk6bm9uZTtzdHJva2Utb3BhY2l0eToxIi8+JiN4YTsgICAgICA8Y2lyY2xlIHRyYW5zZm9ybT0icm90YXRlKC01MS4yMzYwNjgpIiByPSIxLjA3NDE0MTYiIGN5PSIxMTQuMTUxNDMiIGN4PSIzNi45NDc4NzYiIGlkPSJwYXRoNzc3LTUzLTMtNy04LTItMS0yLTEtMCIgc3R5bGU9ImZpbGw6IzRkNGQ0ZDtzdHJva2U6IzAwMDAwMDtzdHJva2Utd2lkdGg6MC4yMDc7c3Ryb2tlLWRhc2hhcnJheTpub25lO3N0cm9rZS1vcGFjaXR5OjEiLz4mI3hhOyAgICA8L2c+JiN4YTsgICAgPGcgdHJhbnNmb3JtPSJ0cmFuc2xhdGUoMTA1LjY1ODIxLC02LjQ4OTAyMjMpIiBpZD0iZzQ2NDQiPiYjeGE7ICAgICAgPGNpcmNsZSB0cmFuc2Zvcm09InJvdGF0ZSgtNTEuMjM2MDY4KSIgcj0iMS4wNzQxNDE2IiBjeT0iMTM2LjA0NDc0IiBjeD0iMzEuMzMxNzE4IiBpZD0icGF0aDc3Ny01My0zLTctOC0yLTQtMS00LTciIHN0eWxlPSJmaWxsOiNmZjU1NTU7c3Ryb2tlOiMwMDAwMDA7c3Ryb2tlLXdpZHRoOjAuMjA3O3N0cm9rZS1kYXNoYXJyYXk6bm9uZTtzdHJva2Utb3BhY2l0eToxIi8+JiN4YTsgICAgICA8Y2lyY2xlIHRyYW5zZm9ybT0icm90YXRlKC01MS4yMzYwNjgpIiByPSIxLjA3NDE0MTYiIGN5PSIxMzcuNDYyMjUiIGN4PSIyNy4wNjg0NzIiIGlkPSJwYXRoNzc3LTUzLTMtNy04LTItMi03LTMtMi0zIiBzdHlsZT0iZmlsbDojZmY1NTU1O3N0cm9rZTojMDAwMDAwO3N0cm9rZS13aWR0aDowLjIwNztzdHJva2UtZGFzaGFycmF5Om5vbmU7c3Ryb2tlLW9wYWNpdHk6MSIvPiYjeGE7ICAgICAgPGNpcmNsZSB0cmFuc2Zvcm09InJvdGF0ZSgtNTEuMjM2MDY4KSIgcj0iMS4wNzQxNDE2IiBjeT0iMTM2Ljc5NzM2IiBjeD0iMjkuMjQ4MzE4IiBpZD0icGF0aDc3Ny01My0zLTctOC0yLTUtMy0wLTYtOCIgc3R5bGU9ImZpbGw6I2ZmNTU1NTtzdHJva2U6IzAwMDAwMDtzdHJva2Utd2lkdGg6MC4yMDc7c3Ryb2tlLWRhc2hhcnJheTpub25lO3N0cm9rZS1vcGFjaXR5OjEiLz4mI3hhOyAgICAgIDxjaXJjbGUgdHJhbnNmb3JtPSJyb3RhdGUoLTUxLjIzNjA2OCkiIHI9IjEuMDc0MTQxNiIgY3k9IjEzNy40MjIyIiBjeD0iMjQuODY1MzE2IiBpZD0icGF0aDc3Ny01My0zLTctOC0yLTAtMC04LTctOCIgc3R5bGU9ImZpbGw6I2ZmNTU1NTtzdHJva2U6IzAwMDAwMDtzdHJva2Utd2lkdGg6MC4yMDc7c3Ryb2tlLWRhc2hhcnJheTpub25lO3N0cm9rZS1vcGFjaXR5OjEiLz4mI3hhOyAgICAgIDxjaXJjbGUgdHJhbnNmb3JtPSJyb3RhdGUoLTUxLjIzNjA2OCkiIHI9IjEuMDc0MTQxNiIgY3k9IjEzNi4xNzM4NCIgY3g9IjIwLjc4NzM1OSIgaWQ9InBhdGg3NzctNTMtMy03LTgtMi0xLTkwLTctNi05IiBzdHlsZT0iZmlsbDojNGQ0ZDRkO3N0cm9rZTojMDAwMDAwO3N0cm9rZS13aWR0aDowLjIwNztzdHJva2UtZGFzaGFycmF5Om5vbmU7c3Ryb2tlLW9wYWNpdHk6MSIvPiYjeGE7ICAgICAgPGNpcmNsZSB0cmFuc2Zvcm09InJvdGF0ZSgtNTEuMjM2MDY4KSIgcj0iMS4wNzQxNDE2IiBjeT0iMTM3LjM4MjE0IiBjeD0iMjIuNjYyMTY5IiBpZD0icGF0aDc3Ny01My0zLTctOC0yLTEtNy0zLTYtMy02IiBzdHlsZT0iZmlsbDojNGQ0ZDRkO3N0cm9rZTojMDAwMDAwO3N0cm9rZS13aWR0aDowLjIwNztzdHJva2UtZGFzaGFycmF5Om5vbmU7c3Ryb2tlLW9wYWNpdHk6MSIvPiYjeGE7ICAgICAgPGNpcmNsZSB0cmFuc2Zvcm09InJvdGF0ZSgtNTEuMjM2MDY4KSIgcj0iMS4wNzQxNDE2IiBjeT0iMTI3LjA1NzUzIiBjeD0iNi4yMzA0NjMiIGlkPSJwYXRoNzc3LTUzLTMtNy04LTItMS00LTEtMi00LTgiIHN0eWxlPSJmaWxsOiM0ZDRkNGQ7c3Ryb2tlOiMwMDAwMDA7c3Ryb2tlLXdpZHRoOjAuMjA3O3N0cm9rZS1kYXNoYXJyYXk6bm9uZTtzdHJva2Utb3BhY2l0eToxIi8+JiN4YTsgICAgICA8Y2lyY2xlIHRyYW5zZm9ybT0icm90YXRlKC01MS4yMzYwNjgpIiByPSIxLjA3NDE0MTYiIGN5PSIxMzMuNjAyMjkiIGN4PSIxNy40NTYwMjYiIGlkPSJwYXRoNzc3LTUzLTMtNy04LTItMS00My0xLTktMS02IiBzdHlsZT0iZmlsbDojNGQ0ZDRkO3N0cm9rZTojMDAwMDAwO3N0cm9rZS13aWR0aDowLjIwNztzdHJva2UtZGFzaGFycmF5Om5vbmU7c3Ryb2tlLW9wYWNpdHk6MSIvPiYjeGE7ICAgICAgPGNpcmNsZSB0cmFuc2Zvcm09InJvdGF0ZSgtNTEuMjM2MDY4KSIgcj0iMS4wNzQxNDE2IiBjeT0iMTM0Ljc4ODkxIiBjeD0iMTkuMTMyNTI4IiBpZD0icGF0aDc3Ny01My0zLTctOC0yLTEtMC01LTEtOS05IiBzdHlsZT0iZmlsbDojNGQ0ZDRkO3N0cm9rZTojMDAwMDAwO3N0cm9rZS13aWR0aDowLjIwNztzdHJva2UtZGFzaGFycmF5Om5vbmU7c3Ryb2tlLW9wYWNpdHk6MSIvPiYjeGE7ICAgICAgPGNpcmNsZSB0cmFuc2Zvcm09InJvdGF0ZSgtNTEuMjM2MDY4KSIgcj0iMS4wNzQxNDE2IiBjeT0iMTMwLjgxMDc2IiBjeD0iMTMuOTQ4MDU5IiBpZD0icGF0aDc3Ny01My0zLTctOC0yLTEtNzktMy00LTUtNSIgc3R5bGU9ImZpbGw6IzRkNGQ0ZDtzdHJva2U6IzAwMDAwMDtzdHJva2Utd2lkdGg6MC4yMDc7c3Ryb2tlLWRhc2hhcnJheTpub25lO3N0cm9rZS1vcGFjaXR5OjEiLz4mI3hhOyAgICAgIDxjaXJjbGUgdHJhbnNmb3JtPSJyb3RhdGUoLTUxLjIzNjA2OCkiIHI9IjEuMDc0MTQxNiIgY3k9IjEzMi4xMDczOCIgY3g9IjE1LjcxMjg3NSIgaWQ9InBhdGg3NzctNTMtMy03LTgtMi0xLTktOS0xLTktOSIgc3R5bGU9ImZpbGw6IzRkNGQ0ZDtzdHJva2U6IzAwMDAwMDtzdHJva2Utd2lkdGg6MC4yMDc7c3Ryb2tlLWRhc2hhcnJheTpub25lO3N0cm9rZS1vcGFjaXR5OjEiLz4mI3hhOyAgICAgIDxjaXJjbGUgdHJhbnNmb3JtPSJyb3RhdGUoLTUxLjIzNjA2OCkiIHI9IjEuMDc0MTQxNiIgY3k9IjEyOS43NzkxMSIgY3g9IjExLjg1MzI2IiBpZD0icGF0aDc3Ny01My0zLTctOC0yLTEtOTQtNi0yLTgtNiIgc3R5bGU9ImZpbGw6IzRkNGQ0ZDtzdHJva2U6IzAwMDAwMDtzdHJva2Utd2lkdGg6MC4yMDc7c3Ryb2tlLWRhc2hhcnJheTpub25lO3N0cm9rZS1vcGFjaXR5OjEiLz4mI3hhOyAgICAgIDxjaXJjbGUgdHJhbnNmb3JtPSJyb3RhdGUoLTUxLjIzNjA2OCkiIHI9IjEuMDc0MTQxNiIgY3k9IjEyOC4wNjc0OSIgY3g9IjguMTI2OTUxMiIgaWQ9InBhdGg3NzctNTMtMy03LTgtMi0xLTQxLTMtNS04LTgiIHN0eWxlPSJmaWxsOiM0ZDRkNGQ7c3Ryb2tlOiMwMDAwMDA7c3Ryb2tlLXdpZHRoOjAuMjA3O3N0cm9rZS1kYXNoYXJyYXk6bm9uZTtzdHJva2Utb3BhY2l0eToxIi8+JiN4YTsgICAgICA8Y2lyY2xlIHRyYW5zZm9ybT0icm90YXRlKC01MS4yMzYwNjgpIiByPSIxLjA3NDE0MTYiIGN5PSIxMjguNzY5MTUiIGN4PSI5Ljk1Njc3NzYiIGlkPSJwYXRoNzc3LTUzLTMtNy04LTItMS0yLTEtMC04LTYiIHN0eWxlPSJmaWxsOiM0ZDRkNGQ7c3Ryb2tlOiMwMDAwMDA7c3Ryb2tlLXdpZHRoOjAuMjA3O3N0cm9rZS1kYXNoYXJyYXk6bm9uZTtzdHJva2Utb3BhY2l0eToxIi8+JiN4YTsgICAgPC9nPiYjeGE7ICAgIDxnIHRyYW5zZm9ybT0ibWF0cml4KDEuNDA4NjMxOCwwLDAsMS40MDg2MzE4LC0xMjEuNTkwNzQsNzQuMzkyMDcpIiBpZD0iZzgzODUiPiYjeGE7ICAgICAgPGcgaWQ9Imc4NjYwIj4mI3hhOyAgICAgICAgPHRleHQgc3R5bGU9ImZvbnQtc3R5bGU6bm9ybWFsO2ZvbnQtdmFyaWFudDpub3JtYWw7Zm9udC13ZWlnaHQ6bm9ybWFsO2ZvbnQtc3RyZXRjaDpub3JtYWw7Zm9udC1zaXplOjEwLjY2NjdweDtmb250LWZhbWlseTonLkFxdWEgS2FuYSc7LWlua3NjYXBlLWZvbnQtc3BlY2lmaWNhdGlvbjonLkFxdWEgS2FuYSc7dGV4dC1hbGlnbjpjZW50ZXI7d3JpdGluZy1tb2RlOmxyLXRiO3doaXRlLXNwYWNlOnByZTtzaGFwZS1pbnNpZGU6dXJsKCNyZWN0ODY2NCk7ZGlzcGxheTppbmxpbmU7ZmlsbDojMDAwMDAwO3N0cm9rZTpub25lO3N0cm9rZS13aWR0aDoyLjkwMjY4O3N0cm9rZS1kYXNoYXJyYXk6bm9uZTtzdHJva2Utb3BhY2l0eToxIiBpZD0idGV4dDg2NjIiIHRyYW5zZm9ybT0ibWF0cml4KDAuMTg3ODMwMDIsMCwwLDAuMTg3ODMwMDIsMjE1LjA2MzQzLC00OC43MTg0NTQpIiB4bWw6c3BhY2U9InByZXNlcnZlIi8+JiN4YTsgICAgICAgIDx0ZXh0IHN0eWxlPSJmb250LXN0eWxlOm5vcm1hbDtmb250LXZhcmlhbnQ6bm9ybWFsO2ZvbnQtd2VpZ2h0Om5vcm1hbDtmb250LXN0cmV0Y2g6bm9ybWFsO2ZvbnQtc2l6ZToxMC42NjY3cHg7Zm9udC1mYW1pbHk6Jy5BcXVhIEthbmEnOy1pbmtzY2FwZS1mb250LXNwZWNpZmljYXRpb246Jy5BcXVhIEthbmEnO3RleHQtYWxpZ246Y2VudGVyO3dyaXRpbmctbW9kZTpsci10Yjt3aGl0ZS1zcGFjZTpwcmU7c2hhcGUtaW5zaWRlOnVybCgjcmVjdDg2NzApO2Rpc3BsYXk6aW5saW5lO2ZpbGw6IzAwMDAwMDtzdHJva2U6bm9uZTtzdHJva2Utd2lkdGg6Mi45MDI2ODtzdHJva2UtZGFzaGFycmF5Om5vbmU7c3Ryb2tlLW9wYWNpdHk6MSIgaWQ9InRleHQ4NjY4IiB0cmFuc2Zvcm09Im1hdHJpeCgwLjE4NzgzMDAyLDAsMCwwLjE4NzgzMDAyLDIxMC41NTIsLTYyLjQyNjI1MikiIHhtbDpzcGFjZT0icHJlc2VydmUiLz4mI3hhOyAgICAgICAgPHRleHQgc3R5bGU9ImZvbnQtc3R5bGU6bm9ybWFsO2ZvbnQtdmFyaWFudDpub3JtYWw7Zm9udC13ZWlnaHQ6bm9ybWFsO2ZvbnQtc3RyZXRjaDpub3JtYWw7Zm9udC1zaXplOjEwLjY2NjdweDtmb250LWZhbWlseTonLkFxdWEgS2FuYSc7LWlua3NjYXBlLWZvbnQtc3BlY2lmaWNhdGlvbjonLkFxdWEgS2FuYSc7dGV4dC1hbGlnbjpjZW50ZXI7d3JpdGluZy1tb2RlOmxyLXRiO3doaXRlLXNwYWNlOnByZTtzaGFwZS1pbnNpZGU6dXJsKCNyZWN0ODY3Nik7ZGlzcGxheTppbmxpbmU7ZmlsbDojMDAwMDAwO3N0cm9rZTpub25lO3N0cm9rZS13aWR0aDoyLjkwMjY4O3N0cm9rZS1kYXNoYXJyYXk6bm9uZTtzdHJva2Utb3BhY2l0eToxIiBpZD0idGV4dDg2NzQiIHRyYW5zZm9ybT0ibWF0cml4KDAuMTg3ODMwMDIsMCwwLDAuMTg3ODMwMDIsMjE1LjA2MzQzLC00OC43MTg0NTQpIiB4bWw6c3BhY2U9InByZXNlcnZlIi8+JiN4YTsgICAgICAgIDxnIHRyYW5zZm9ybT0idHJhbnNsYXRlKC0xMDMuMDY4NjIsMTAuMDYzOTUzKSIgaWQ9Imc4OTQ5Ij4mI3hhOyAgICAgICAgICA8Y2lyY2xlIHI9IjMuODEyMjc5NSIgdHJhbnNmb3JtPSJyb3RhdGUoMC42MDcxMTE0NikiIGN5PSI1LjgyMjEyNCIgY3g9IjM4OS4xNjI3MiIgaWQ9InBhdGg3NzctNTMtMy03LTgtMi00LTEtNC03LTciIHN0eWxlPSJmaWxsOiNmZjU1NTU7c3Ryb2tlOiMwMDAwMDA7c3Ryb2tlLXdpZHRoOjAuNzM0NjcyO3N0cm9rZS1kYXNoYXJyYXk6bm9uZTtzdHJva2Utb3BhY2l0eToxIi8+JiN4YTsgICAgICAgICAgPGNpcmNsZSByPSIzLjgxMjI3OTUiIHRyYW5zZm9ybT0icm90YXRlKDAuNjA3MTExNDYpIiBjeT0iNS45OTIzODYzIiBjeD0iMzczLjA5NDk0IiBpZD0icGF0aDc3Ny01My0zLTctOC0yLTItNy0zLTItMy04IiBzdHlsZT0iZmlsbDojZmY1NTU1O3N0cm9rZTojMDAwMDAwO3N0cm9rZS13aWR0aDowLjczNDY3MjtzdHJva2UtZGFzaGFycmF5Om5vbmU7c3Ryb2tlLW9wYWNpdHk6MSIvPiYjeGE7ICAgICAgICAgIDxjaXJjbGUgcj0iMy44MTIyNzk1IiB0cmFuc2Zvcm09InJvdGF0ZSgwLjYwNzExMTQ2KSIgY3k9IjUuOTA3MjU1MiIgY3g9IjM4MS4xMjg4NSIgaWQ9InBhdGg3NzctNTMtMy03LTgtMi01LTMtMC02LTgtNCIgc3R5bGU9ImZpbGw6I2ZmNTU1NTtzdHJva2U6IzAwMDAwMDtzdHJva2Utd2lkdGg6MC43MzQ2NzI7c3Ryb2tlLWRhc2hhcnJheTpub25lO3N0cm9rZS1vcGFjaXR5OjEiLz4mI3hhOyAgICAgICAgICA8Y2lyY2xlIHI9IjMuODEyMjc5NSIgdHJhbnNmb3JtPSJyb3RhdGUoMC42MDcxMTE0NikiIGN5PSI2LjA3NzUxNyIgY3g9IjM2NS4wNjEwNyIgaWQ9InBhdGg3NzctNTMtMy03LTgtMi0wLTAtOC03LTgtNjgiIHN0eWxlPSJmaWxsOiNmZjU1NTU7c3Ryb2tlOiMwMDAwMDA7c3Ryb2tlLXdpZHRoOjAuNzM0NjcyO3N0cm9rZS1kYXNoYXJyYXk6bm9uZTtzdHJva2Utb3BhY2l0eToxIi8+JiN4YTsgICAgICAgICAgPGNpcmNsZSByPSIzLjgxMjI3OTUiIHRyYW5zZm9ybT0icm90YXRlKDAuNjA3MTExNDYpIiBjeT0iNi4yNDc3Nzg5IiBjeD0iMzQ4Ljk5MzI5IiBpZD0icGF0aDc3Ny01My0zLTctOC0yLTEtOTAtNy02LTktMiIgc3R5bGU9ImZpbGw6IzRkNGQ0ZDtzdHJva2U6IzAwMDAwMDtzdHJva2Utd2lkdGg6MC43MzQ2NzI7c3Ryb2tlLWRhc2hhcnJheTpub25lO3N0cm9rZS1vcGFjaXR5OjEiLz4mI3hhOyAgICAgICAgICA8Y2lyY2xlIHI9IjMuODEyMjc5NSIgdHJhbnNmb3JtPSJyb3RhdGUoMC42MDcxMTE0NikiIGN5PSI2LjE2MjY0ODIiIGN4PSIzNTcuMDI3MTkiIGlkPSJwYXRoNzc3LTUzLTMtNy04LTItMS03LTMtNi0zLTYtMyIgc3R5bGU9ImZpbGw6IzRkNGQ0ZDtzdHJva2U6IzAwMDAwMDtzdHJva2Utd2lkdGg6MC43MzQ2NzI7c3Ryb2tlLWRhc2hhcnJheTpub25lO3N0cm9rZS1vcGFjaXR5OjEiLz4mI3hhOyAgICAgICAgICA8Y2lyY2xlIHI9IjMuODEyMjc5NSIgdHJhbnNmb3JtPSJyb3RhdGUoMC42MDcxMTE0NikiIGN5PSI2LjQxODA0MDgiIGN4PSIzMzIuOTI1NTQiIGlkPSJwYXRoNzc3LTUzLTMtNy04LTItMS00My0xLTktMS02LTQiIHN0eWxlPSJmaWxsOiM0ZDRkNGQ7c3Ryb2tlOiMwMDAwMDA7c3Ryb2tlLXdpZHRoOjAuNzM0NjcyO3N0cm9rZS1kYXNoYXJyYXk6bm9uZTtzdHJva2Utb3BhY2l0eToxIi8+JiN4YTsgICAgICAgICAgPGNpcmNsZSByPSIzLjgxMjI3OTUiIHRyYW5zZm9ybT0icm90YXRlKDAuNjA3MTExNDYpIiBjeT0iNi4zMzI5MTAxIiBjeD0iMzQwLjk1OTQxIiBpZD0icGF0aDc3Ny01My0zLTctOC0yLTEtMC01LTEtOS05LTQiIHN0eWxlPSJmaWxsOiM0ZDRkNGQ7c3Ryb2tlOiMwMDAwMDA7c3Ryb2tlLXdpZHRoOjAuNzM0NjcyO3N0cm9rZS1kYXNoYXJyYXk6bm9uZTtzdHJva2Utb3BhY2l0eToxIi8+JiN4YTsgICAgICAgICAgPHRleHQgaWQ9InRleHQ4Mzg5IiB5PSIxNi44MzYzMTUiIHg9IjM1Ny4xMzIxNyIgc3R5bGU9ImZvbnQtc3R5bGU6bm9ybWFsO2ZvbnQtdmFyaWFudDpub3JtYWw7Zm9udC13ZWlnaHQ6bm9ybWFsO2ZvbnQtc3RyZXRjaDpub3JtYWw7Zm9udC1zaXplOjIuMDAzNTJweDtmb250LWZhbWlseTonLkFxdWEgS2FuYSc7LWlua3NjYXBlLWZvbnQtc3BlY2lmaWNhdGlvbjonLkFxdWEgS2FuYSc7dGV4dC1hbGlnbjpjZW50ZXI7d3JpdGluZy1tb2RlOmxyLXRiO3RleHQtYW5jaG9yOm1pZGRsZTtmaWxsOiMwMDAwMDA7c3Ryb2tlOiMwMDAwMDA7c3Ryb2tlLXdpZHRoOjAuNTQ1MjE7c3Ryb2tlLWRhc2hhcnJheTpub25lO3N0cm9rZS1vcGFjaXR5OjEiIHhtbDpzcGFjZT0icHJlc2VydmUiPjx0c3BhbiB5PSIxNi44MzYzMTUiIHg9IjM1Ny4xMzIxNyIgc3R5bGU9ImZvbnQtc2l6ZToyLjAwMzUycHg7d3JpdGluZy1tb2RlOmxyLXRiO3N0cm9rZTpub25lO3N0cm9rZS13aWR0aDowLjU0NTIxIiBpZD0idHNwYW44Mzg3Ij5QMTwvdHNwYW4+PC90ZXh0PiYjeGE7ICAgICAgICAgIDx0ZXh0IGlkPSJ0ZXh0ODM4OS04IiB5PSIxNi44MzYzMTUiIHg9IjM2NC45NTIxMiIgc3R5bGU9ImZvbnQtc3R5bGU6bm9ybWFsO2ZvbnQtdmFyaWFudDpub3JtYWw7Zm9udC13ZWlnaHQ6bm9ybWFsO2ZvbnQtc3RyZXRjaDpub3JtYWw7Zm9udC1zaXplOjIuMDAzNTJweDtmb250LWZhbWlseTonLkFxdWEgS2FuYSc7LWlua3NjYXBlLWZvbnQtc3BlY2lmaWNhdGlvbjonLkFxdWEgS2FuYSc7dGV4dC1hbGlnbjpjZW50ZXI7d3JpdGluZy1tb2RlOmxyLXRiO3RleHQtYW5jaG9yOm1pZGRsZTtmaWxsOiMwMDAwMDA7c3Ryb2tlOiMwMDAwMDA7c3Ryb2tlLXdpZHRoOjAuNTQ1MjE7c3Ryb2tlLWRhc2hhcnJheTpub25lO3N0cm9rZS1vcGFjaXR5OjEiIHhtbDpzcGFjZT0icHJlc2VydmUiPjx0c3BhbiB5PSIxNi44MzYzMTUiIHg9IjM2NC45NTIxMiIgc3R5bGU9ImZvbnQtc2l6ZToyLjAwMzUycHg7d3JpdGluZy1tb2RlOmxyLXRiO3N0cm9rZTpub25lO3N0cm9rZS13aWR0aDowLjU0NTIxIiBpZD0idHNwYW44Mzg3LTAyIj5QMSc8L3RzcGFuPjwvdGV4dD4mI3hhOyAgICAgICAgICA8dGV4dCB0cmFuc2Zvcm09InRyYW5zbGF0ZSgtODYuMjA3MTY4LC0xLjY3NjM4NjkpIiBpZD0idGV4dDgzODktMCIgeT0iMTguNTE2NzA4IiB4PSI0MzUuMDk5MDkiIHN0eWxlPSJmb250LXN0eWxlOm5vcm1hbDtmb250LXZhcmlhbnQ6bm9ybWFsO2ZvbnQtd2VpZ2h0Om5vcm1hbDtmb250LXN0cmV0Y2g6bm9ybWFsO2ZvbnQtc2l6ZToyLjAwMzUycHg7Zm9udC1mYW1pbHk6Jy5BcXVhIEthbmEnOy1pbmtzY2FwZS1mb250LXNwZWNpZmljYXRpb246Jy5BcXVhIEthbmEnO3RleHQtYWxpZ246Y2VudGVyO3dyaXRpbmctbW9kZTpsci10Yjt0ZXh0LWFuY2hvcjptaWRkbGU7d2hpdGUtc3BhY2U6cHJlO2lubGluZS1zaXplOjcuNTA1OTY7ZGlzcGxheTppbmxpbmU7ZmlsbDojMDAwMDAwO3N0cm9rZTojMDAwMDAwO3N0cm9rZS13aWR0aDowLjU0NTIxO3N0cm9rZS1kYXNoYXJyYXk6bm9uZTtzdHJva2Utb3BhY2l0eToxIiB4bWw6c3BhY2U9InByZXNlcnZlIj48dHNwYW4gaWQ9InRzcGFuMTIzNCIgeT0iMTguNTE2NzA4IiB4PSI0MzUuMDk5MDkiPjx0c3BhbiBpZD0idHNwYW4xMjMyIiBzdHlsZT0ic3Ryb2tlOm5vbmUiPlAyPC90c3Bhbj48L3RzcGFuPjwvdGV4dD4mI3hhOyAgICAgICAgICA8dGV4dCB0cmFuc2Zvcm09InRyYW5zbGF0ZSgtOTQuMjM2NDg1LC0xLjY4NDQwMSkiIGlkPSJ0ZXh0ODM4OS0wLTUiIHk9IjE4LjUxNjcwOCIgeD0iNDM1LjA5OTA5IiBzdHlsZT0iZm9udC1zdHlsZTpub3JtYWw7Zm9udC12YXJpYW50Om5vcm1hbDtmb250LXdlaWdodDpub3JtYWw7Zm9udC1zdHJldGNoOm5vcm1hbDtmb250LXNpemU6Mi4wMDM1MnB4O2ZvbnQtZmFtaWx5OicuQXF1YSBLYW5hJzstaW5rc2NhcGUtZm9udC1zcGVjaWZpY2F0aW9uOicuQXF1YSBLYW5hJzt0ZXh0LWFsaWduOmNlbnRlcjt3cml0aW5nLW1vZGU6bHItdGI7dGV4dC1hbmNob3I6bWlkZGxlO3doaXRlLXNwYWNlOnByZTtpbmxpbmUtc2l6ZTo3LjUwNTk2O2Rpc3BsYXk6aW5saW5lO2ZpbGw6IzAwMDAwMDtzdHJva2U6IzAwMDAwMDtzdHJva2Utd2lkdGg6MC41NDUyMTtzdHJva2UtZGFzaGFycmF5Om5vbmU7c3Ryb2tlLW9wYWNpdHk6MSIgeG1sOnNwYWNlPSJwcmVzZXJ2ZSI+PHRzcGFuIGlkPSJ0c3BhbjEyMzgiIHk9IjE4LjUxNjcwOCIgeD0iNDM1LjA5OTA5Ij48dHNwYW4gaWQ9InRzcGFuMTIzNiIgc3R5bGU9InN0cm9rZTpub25lIj5QMzwvdHNwYW4+PC90c3Bhbj48L3RleHQ+JiN4YTsgICAgICAgICAgPHRleHQgdHJhbnNmb3JtPSJ0cmFuc2xhdGUoLTEwMi4zMTA4OCwtMS42ODIzOTc1KSIgaWQ9InRleHQ4Mzg5LTAtNS02IiB5PSIxOC41MTY3MDgiIHg9IjQzNS4wOTkwOSIgc3R5bGU9ImZvbnQtc3R5bGU6bm9ybWFsO2ZvbnQtdmFyaWFudDpub3JtYWw7Zm9udC13ZWlnaHQ6bm9ybWFsO2ZvbnQtc3RyZXRjaDpub3JtYWw7Zm9udC1zaXplOjIuMDAzNTJweDtmb250LWZhbWlseTonLkFxdWEgS2FuYSc7LWlua3NjYXBlLWZvbnQtc3BlY2lmaWNhdGlvbjonLkFxdWEgS2FuYSc7dGV4dC1hbGlnbjpjZW50ZXI7d3JpdGluZy1tb2RlOmxyLXRiO3RleHQtYW5jaG9yOm1pZGRsZTt3aGl0ZS1zcGFjZTpwcmU7aW5saW5lLXNpemU6Ny41MDU5NjtkaXNwbGF5OmlubGluZTtmaWxsOiMwMDAwMDA7c3Ryb2tlOiMwMDAwMDA7c3Ryb2tlLXdpZHRoOjAuNTQ1MjE7c3Ryb2tlLWRhc2hhcnJheTpub25lO3N0cm9rZS1vcGFjaXR5OjEiIHhtbDpzcGFjZT0icHJlc2VydmUiPjx0c3BhbiBpZD0idHNwYW4xMjQyIiB5PSIxOC41MTY3MDgiIHg9IjQzNS4wOTkwOSI+PHRzcGFuIGlkPSJ0c3BhbjEyNDAiIHN0eWxlPSJzdHJva2U6bm9uZSI+UDQ8L3RzcGFuPjwvdHNwYW4+PC90ZXh0PiYjeGE7ICAgICAgICAgIDx0ZXh0IGlkPSJ0ZXh0ODM4OS04LTkiIHk9IjE2LjgzMjMwOCIgeD0iMzgxLjAyMDgxIiBzdHlsZT0iZm9udC1zdHlsZTpub3JtYWw7Zm9udC12YXJpYW50Om5vcm1hbDtmb250LXdlaWdodDpub3JtYWw7Zm9udC1zdHJldGNoOm5vcm1hbDtmb250LXNpemU6Mi4wMDM1MnB4O2ZvbnQtZmFtaWx5OicuQXF1YSBLYW5hJzstaW5rc2NhcGUtZm9udC1zcGVjaWZpY2F0aW9uOicuQXF1YSBLYW5hJzt0ZXh0LWFsaWduOmNlbnRlcjt3cml0aW5nLW1vZGU6bHItdGI7dGV4dC1hbmNob3I6bWlkZGxlO2ZpbGw6IzAwMDAwMDtzdHJva2U6IzAwMDAwMDtzdHJva2Utd2lkdGg6MC41NDUyMTtzdHJva2UtZGFzaGFycmF5Om5vbmU7c3Ryb2tlLW9wYWNpdHk6MSIgeG1sOnNwYWNlPSJwcmVzZXJ2ZSI+PHRzcGFuIHk9IjE2LjgzMjMwOCIgeD0iMzgxLjAyMDgxIiBzdHlsZT0iZm9udC1zaXplOjIuMDAzNTJweDt3cml0aW5nLW1vZGU6bHItdGI7c3Ryb2tlOm5vbmU7c3Ryb2tlLXdpZHRoOjAuNTQ1MjEiIGlkPSJ0c3BhbjgzODctMDItMiI+UDMnPC90c3Bhbj48L3RleHQ+JiN4YTsgICAgICAgICAgPHRleHQgaWQ9InRleHQ4Mzg5LTgtOS0yIiB5PSIxNi44MzQzMTEiIHg9IjM4OS4wNTUxNSIgc3R5bGU9ImZvbnQtc3R5bGU6bm9ybWFsO2ZvbnQtdmFyaWFudDpub3JtYWw7Zm9udC13ZWlnaHQ6bm9ybWFsO2ZvbnQtc3RyZXRjaDpub3JtYWw7Zm9udC1zaXplOjIuMDAzNTJweDtmb250LWZhbWlseTonLkFxdWEgS2FuYSc7LWlua3NjYXBlLWZvbnQtc3BlY2lmaWNhdGlvbjonLkFxdWEgS2FuYSc7dGV4dC1hbGlnbjpjZW50ZXI7d3JpdGluZy1tb2RlOmxyLXRiO3RleHQtYW5jaG9yOm1pZGRsZTtmaWxsOiMwMDAwMDA7c3Ryb2tlOiMwMDAwMDA7c3Ryb2tlLXdpZHRoOjAuNTQ1MjE7c3Ryb2tlLWRhc2hhcnJheTpub25lO3N0cm9rZS1vcGFjaXR5OjEiIHhtbDpzcGFjZT0icHJlc2VydmUiPjx0c3BhbiB5PSIxNi44MzQzMTEiIHg9IjM4OS4wNTUxNSIgc3R5bGU9ImZvbnQtc2l6ZToyLjAwMzUycHg7d3JpdGluZy1tb2RlOmxyLXRiO3N0cm9rZTpub25lO3N0cm9rZS13aWR0aDowLjU0NTIxIiBpZD0idHNwYW44Mzg3LTAyLTItMCI+UDQnPC90c3Bhbj48L3RleHQ+JiN4YTsgICAgICAgICAgPHRleHQgaWQ9InRleHQ4Mzg5LTgtOS04IiB5PSIxNi44NDAzMjIiIHg9IjM3Mi45ODY0NSIgc3R5bGU9ImZvbnQtc3R5bGU6bm9ybWFsO2ZvbnQtdmFyaWFudDpub3JtYWw7Zm9udC13ZWlnaHQ6bm9ybWFsO2ZvbnQtc3RyZXRjaDpub3JtYWw7Zm9udC1zaXplOjIuMDAzNTJweDtmb250LWZhbWlseTonLkFxdWEgS2FuYSc7LWlua3NjYXBlLWZvbnQtc3BlY2lmaWNhdGlvbjonLkFxdWEgS2FuYSc7dGV4dC1hbGlnbjpjZW50ZXI7d3JpdGluZy1tb2RlOmxyLXRiO3RleHQtYW5jaG9yOm1pZGRsZTtmaWxsOiMwMDAwMDA7c3Ryb2tlOiMwMDAwMDA7c3Ryb2tlLXdpZHRoOjAuNTQ1MjE7c3Ryb2tlLWRhc2hhcnJheTpub25lO3N0cm9rZS1vcGFjaXR5OjEiIHhtbDpzcGFjZT0icHJlc2VydmUiPjx0c3BhbiB5PSIxNi44NDAzMjIiIHg9IjM3Mi45ODY0NSIgc3R5bGU9ImZvbnQtc2l6ZToyLjAwMzUycHg7d3JpdGluZy1tb2RlOmxyLXRiO3N0cm9rZTpub25lO3N0cm9rZS13aWR0aDowLjU0NTIxIiBpZD0idHNwYW44Mzg3LTAyLTItMyI+UDInPC90c3Bhbj48L3RleHQ+JiN4YTsgICAgICAgICAgPHRleHQgaWQ9InRleHQ4Njg2IiB5PSIxMi42NTIwODEiIHg9IjM1Ni43MzE0OCIgc3R5bGU9ImZvbnQtc3R5bGU6bm9ybWFsO2ZvbnQtdmFyaWFudDpub3JtYWw7Zm9udC13ZWlnaHQ6bm9ybWFsO2ZvbnQtc3RyZXRjaDpub3JtYWw7Zm9udC1zaXplOjcuMDEyMzJweDtmb250LWZhbWlseTonLkFxdWEgS2FuYSc7LWlua3NjYXBlLWZvbnQtc3BlY2lmaWNhdGlvbjonLkFxdWEgS2FuYSc7dGV4dC1hbGlnbjpjZW50ZXI7d3JpdGluZy1tb2RlOmxyLXRiO3RleHQtYW5jaG9yOm1pZGRsZTtmaWxsOiMwMDAwMDA7c3Ryb2tlOm5vbmU7c3Ryb2tlLXdpZHRoOjAuNTQ1MjE7c3Ryb2tlLWRhc2hhcnJheTpub25lO3N0cm9rZS1vcGFjaXR5OjEiIHhtbDpzcGFjZT0icHJlc2VydmUiPjx0c3BhbiB5PSIxMi42NTIwODEiIHg9IjM1Ni43MzE0OCIgc3R5bGU9ImZvbnQtc2l6ZTo3LjAxMjMycHg7c3Ryb2tlLXdpZHRoOjAuNTQ1MjEiIGlkPSJ0c3Bhbjg2ODQiPk08L3RzcGFuPjwvdGV4dD4mI3hhOyAgICAgICAgICA8dGV4dCBpZD0idGV4dDg2ODYtNyIgeT0iMTIuNjYyNTk5IiB4PSIzMzIuNjk4NjEiIHN0eWxlPSJmb250LXN0eWxlOm5vcm1hbDtmb250LXZhcmlhbnQ6bm9ybWFsO2ZvbnQtd2VpZ2h0Om5vcm1hbDtmb250LXN0cmV0Y2g6bm9ybWFsO2ZvbnQtc2l6ZTo3LjAxMjMycHg7Zm9udC1mYW1pbHk6Jy5BcXVhIEthbmEnOy1pbmtzY2FwZS1mb250LXNwZWNpZmljYXRpb246Jy5BcXVhIEthbmEnO3RleHQtYWxpZ246Y2VudGVyO3dyaXRpbmctbW9kZTpsci10Yjt0ZXh0LWFuY2hvcjptaWRkbGU7ZmlsbDojMDAwMDAwO3N0cm9rZTpub25lO3N0cm9rZS13aWR0aDowLjU0NTIxO3N0cm9rZS1kYXNoYXJyYXk6bm9uZTtzdHJva2Utb3BhY2l0eToxIiB4bWw6c3BhY2U9InByZXNlcnZlIj48dHNwYW4geT0iMTIuNjYyNTk5IiB4PSIzMzIuNjk4NjEiIHN0eWxlPSJmb250LXNpemU6Ny4wMTIzMnB4O3N0cm9rZS13aWR0aDowLjU0NTIxIiBpZD0idHNwYW44Njg0LTQiPk08L3RzcGFuPjwvdGV4dD4mI3hhOyAgICAgICAgICA8dGV4dCBpZD0idGV4dDg2ODYtNy0zIiB5PSIxMi42Mjc1MzgiIHg9IjM0MC42MzEyMyIgc3R5bGU9ImZvbnQtc3R5bGU6bm9ybWFsO2ZvbnQtdmFyaWFudDpub3JtYWw7Zm9udC13ZWlnaHQ6bm9ybWFsO2ZvbnQtc3RyZXRjaDpub3JtYWw7Zm9udC1zaXplOjcuMDEyMzJweDtmb250LWZhbWlseTonLkFxdWEgS2FuYSc7LWlua3NjYXBlLWZvbnQtc3BlY2lmaWNhdGlvbjonLkFxdWEgS2FuYSc7dGV4dC1hbGlnbjpjZW50ZXI7d3JpdGluZy1tb2RlOmxyLXRiO3RleHQtYW5jaG9yOm1pZGRsZTtmaWxsOiMwMDAwMDA7c3Ryb2tlOm5vbmU7c3Ryb2tlLXdpZHRoOjAuNTQ1MjE7c3Ryb2tlLWRhc2hhcnJheTpub25lO3N0cm9rZS1vcGFjaXR5OjEiIHhtbDpzcGFjZT0icHJlc2VydmUiPjx0c3BhbiB5PSIxMi42Mjc1MzgiIHg9IjM0MC42MzEyMyIgc3R5bGU9ImZvbnQtc2l6ZTo3LjAxMjMycHg7c3Ryb2tlLXdpZHRoOjAuNTQ1MjEiIGlkPSJ0c3Bhbjg2ODQtNC04Ij5TPC90c3Bhbj48L3RleHQ+JiN4YTsgICAgICAgICAgPHRleHQgaWQ9InRleHQ4Njg2LTctMy03IiB5PSIxMi42NTIwODEiIHg9IjM0OC45MDc1IiBzdHlsZT0iZm9udC1zdHlsZTpub3JtYWw7Zm9udC12YXJpYW50Om5vcm1hbDtmb250LXdlaWdodDpub3JtYWw7Zm9udC1zdHJldGNoOm5vcm1hbDtmb250LXNpemU6Ny4wMTIzMnB4O2ZvbnQtZmFtaWx5OicuQXF1YSBLYW5hJzstaW5rc2NhcGUtZm9udC1zcGVjaWZpY2F0aW9uOicuQXF1YSBLYW5hJzt0ZXh0LWFsaWduOmNlbnRlcjt3cml0aW5nLW1vZGU6bHItdGI7dGV4dC1hbmNob3I6bWlkZGxlO2ZpbGw6IzAwMDAwMDtzdHJva2U6bm9uZTtzdHJva2Utd2lkdGg6MC41NDUyMTtzdHJva2UtZGFzaGFycmF5Om5vbmU7c3Ryb2tlLW9wYWNpdHk6MSIgeG1sOnNwYWNlPSJwcmVzZXJ2ZSI+PHRzcGFuIHk9IjEyLjY1MjA4MSIgeD0iMzQ4LjkwNzUiIHN0eWxlPSJmb250LXNpemU6Ny4wMTIzMnB4O3N0cm9rZS13aWR0aDowLjU0NTIxIiBpZD0idHNwYW44Njg0LTQtOC0yIj5QPC90c3Bhbj48L3RleHQ+JiN4YTsgICAgICAgICAgPHRleHQgaWQ9InRleHQ4Njg2LTctMy0yIiB5PSIxMi42NTIwODEiIHg9IjM2NC44ODg1MiIgc3R5bGU9ImZvbnQtc3R5bGU6bm9ybWFsO2ZvbnQtdmFyaWFudDpub3JtYWw7Zm9udC13ZWlnaHQ6bm9ybWFsO2ZvbnQtc3RyZXRjaDpub3JtYWw7Zm9udC1zaXplOjcuMDEyMzJweDtmb250LWZhbWlseTonLkFxdWEgS2FuYSc7LWlua3NjYXBlLWZvbnQtc3BlY2lmaWNhdGlvbjonLkFxdWEgS2FuYSc7dGV4dC1hbGlnbjpjZW50ZXI7d3JpdGluZy1tb2RlOmxyLXRiO3RleHQtYW5jaG9yOm1pZGRsZTtmaWxsOiMwMDAwMDA7c3Ryb2tlOm5vbmU7c3Ryb2tlLXdpZHRoOjAuNTQ1MjE7c3Ryb2tlLWRhc2hhcnJheTpub25lO3N0cm9rZS1vcGFjaXR5OjEiIHhtbDpzcGFjZT0icHJlc2VydmUiPjx0c3BhbiB5PSIxMi42NTIwODEiIHg9IjM2NC44ODg1MiIgc3R5bGU9ImZvbnQtc2l6ZTo3LjAxMjMycHg7c3Ryb2tlLXdpZHRoOjAuNTQ1MjEiIGlkPSJ0c3Bhbjg2ODQtNC04LTkiPlM8L3RzcGFuPjwvdGV4dD4mI3hhOyAgICAgICAgICA8dGV4dCBpZD0idGV4dDg2ODYtNy0zLTItNSIgeT0iMTIuNjUyMDgxIiB4PSIzNzMuMDA2OTkiIHN0eWxlPSJmb250LXN0eWxlOm5vcm1hbDtmb250LXZhcmlhbnQ6bm9ybWFsO2ZvbnQtd2VpZ2h0Om5vcm1hbDtmb250LXN0cmV0Y2g6bm9ybWFsO2ZvbnQtc2l6ZTo3LjAxMjMycHg7Zm9udC1mYW1pbHk6Jy5BcXVhIEthbmEnOy1pbmtzY2FwZS1mb250LXNwZWNpZmljYXRpb246Jy5BcXVhIEthbmEnO3RleHQtYWxpZ246Y2VudGVyO3dyaXRpbmctbW9kZTpsci10Yjt0ZXh0LWFuY2hvcjptaWRkbGU7ZmlsbDojMDAwMDAwO3N0cm9rZTpub25lO3N0cm9rZS13aWR0aDowLjU0NTIxO3N0cm9rZS1kYXNoYXJyYXk6bm9uZTtzdHJva2Utb3BhY2l0eToxIiB4bWw6c3BhY2U9InByZXNlcnZlIj48dHNwYW4geT0iMTIuNjUyMDgxIiB4PSIzNzMuMDA2OTkiIHN0eWxlPSJmb250LXNpemU6Ny4wMTIzMnB4O3N0cm9rZS13aWR0aDowLjU0NTIxIiBpZD0idHNwYW44Njg0LTQtOC05LTIiPkk8L3RzcGFuPjwvdGV4dD4mI3hhOyAgICAgICAgICA8dGV4dCBpZD0idGV4dDg2ODYtNy0zLTItNS02IiB5PSIxMi42Njk2MTEiIHg9IjM4MS4wOTM5MyIgc3R5bGU9ImZvbnQtc3R5bGU6bm9ybWFsO2ZvbnQtdmFyaWFudDpub3JtYWw7Zm9udC13ZWlnaHQ6bm9ybWFsO2ZvbnQtc3RyZXRjaDpub3JtYWw7Zm9udC1zaXplOjcuMDEyMzJweDtmb250LWZhbWlseTonLkFxdWEgS2FuYSc7LWlua3NjYXBlLWZvbnQtc3BlY2lmaWNhdGlvbjonLkFxdWEgS2FuYSc7dGV4dC1hbGlnbjpjZW50ZXI7d3JpdGluZy1tb2RlOmxyLXRiO3RleHQtYW5jaG9yOm1pZGRsZTtmaWxsOiMwMDAwMDA7c3Ryb2tlOm5vbmU7c3Ryb2tlLXdpZHRoOjAuNTQ1MjE7c3Ryb2tlLWRhc2hhcnJheTpub25lO3N0cm9rZS1vcGFjaXR5OjEiIHhtbDpzcGFjZT0icHJlc2VydmUiPjx0c3BhbiB5PSIxMi42Njk2MTEiIHg9IjM4MS4wOTM5MyIgc3R5bGU9ImZvbnQtc2l6ZTo3LjAxMjMycHg7c3Ryb2tlLXdpZHRoOjAuNTQ1MjEiIGlkPSJ0c3Bhbjg2ODQtNC04LTktMi0xIj5OPC90c3Bhbj48L3RleHQ+JiN4YTsgICAgICAgICAgPHRleHQgaWQ9InRleHQ4Njg2LTctMy0yLTUtNi00IiB5PSIxMi40ODcyOSIgeD0iMzg5LjA3OTE2IiBzdHlsZT0iZm9udC1zdHlsZTpub3JtYWw7Zm9udC12YXJpYW50Om5vcm1hbDtmb250LXdlaWdodDpub3JtYWw7Zm9udC1zdHJldGNoOm5vcm1hbDtmb250LXNpemU6Ny4wMTIzMnB4O2ZvbnQtZmFtaWx5OicuQXF1YSBLYW5hJzstaW5rc2NhcGUtZm9udC1zcGVjaWZpY2F0aW9uOicuQXF1YSBLYW5hJzt0ZXh0LWFsaWduOmNlbnRlcjt3cml0aW5nLW1vZGU6bHItdGI7dGV4dC1hbmNob3I6bWlkZGxlO2ZpbGw6IzAwMDAwMDtzdHJva2U6bm9uZTtzdHJva2Utd2lkdGg6MC41NDUyMTtzdHJva2UtZGFzaGFycmF5Om5vbmU7c3Ryb2tlLW9wYWNpdHk6MSIgeG1sOnNwYWNlPSJwcmVzZXJ2ZSI+PHRzcGFuIHk9IjEyLjQ4NzI5IiB4PSIzODkuMDc5MTYiIHN0eWxlPSJmb250LXNpemU6Ny4wMTIzMnB4O3N0cm9rZS13aWR0aDowLjU0NTIxIiBpZD0idHNwYW44Njg0LTQtOC05LTItMS02Ij5SPC90c3Bhbj48L3RleHQ+JiN4YTsgICAgICAgIDwvZz4mI3hhOyAgICAgIDwvZz4mI3hhOyAgICA8L2c+JiN4YTsgICAgPGcgdHJhbnNmb3JtPSJyb3RhdGUoLTcuMTIxNTA3MiwxODUuNjU3NTYsNzE4LjI2NTA1KSIgaWQ9Imc1NDcyIj4mI3hhOyAgICAgIDxjaXJjbGUgdHJhbnNmb3JtPSJyb3RhdGUoLTEwMi4wODkyOCkiIHI9IjEuMDc0MTQxNiIgY3k9IjMwOS45NTYzNiIgY3g9Ii0xMjYuMjI2MDEiIGlkPSJwYXRoNzc3LTUzLTMtNy04LTItNC0xLTQtNy0zIiBzdHlsZT0iZmlsbDojZmY1NTU1O3N0cm9rZTojMDAwMDAwO3N0cm9rZS13aWR0aDowLjIwNztzdHJva2UtZGFzaGFycmF5Om5vbmU7c3Ryb2tlLW9wYWNpdHk6MSIvPiYjeGE7ICAgICAgPGNpcmNsZSB0cmFuc2Zvcm09InJvdGF0ZSgtMTAyLjA4OTI4KSIgcj0iMS4wNzQxNDE2IiBjeT0iMzA4LjgwMjM3IiBjeD0iLTEzMC4zNzEyOCIgaWQ9InBhdGg3NzctNTMtMy03LTgtMi0yLTctMy0yLTMtNiIgc3R5bGU9ImZpbGw6I2ZmNTU1NTtzdHJva2U6IzAwMDAwMDtzdHJva2Utd2lkdGg6MC4yMDc7c3Ryb2tlLWRhc2hhcnJheTpub25lO3N0cm9rZS1vcGFjaXR5OjEiLz4mI3hhOyAgICAgIDxjaXJjbGUgdHJhbnNmb3JtPSJyb3RhdGUoLTE5LjM1NjIxMykiIHI9IjEuMDc0MTQxNiIgY3k9IjE2Ni40NzMxNiIgY3g9IjI5MC44MjQ4NiIgaWQ9InBhdGg3NzctNTMtMy03LTgtMi01LTMtMC02LTgtNiIgc3R5bGU9ImZpbGw6I2ZmNTU1NTtzdHJva2U6IzAwMDAwMDtzdHJva2Utd2lkdGg6MC4yMDc7c3Ryb2tlLWRhc2hhcnJheTpub25lO3N0cm9rZS1vcGFjaXR5OjEiLz4mI3hhOyAgICAgIDxjaXJjbGUgdHJhbnNmb3JtPSJyb3RhdGUoLTEzMi4xMjkwMSkiIHI9IjEuMDc0MTQxNiIgY3k9IjIwNS40MjIzNSIgY3g9Ii0yNjIuMzIzMjQiIGlkPSJwYXRoNzc3LTUzLTMtNy04LTItMC0wLTgtNy04LTUiIHN0eWxlPSJmaWxsOiNmZjU1NTU7c3Ryb2tlOiMwMDAwMDA7c3Ryb2tlLXdpZHRoOjAuMjA3O3N0cm9rZS1kYXNoYXJyYXk6bm9uZTtzdHJva2Utb3BhY2l0eToxIi8+JiN4YTsgICAgICA8Y2lyY2xlIHRyYW5zZm9ybT0icm90YXRlKC0xMzIuMTI5MDEpIiByPSIxLjA3NDE0MTYiIGN5PSIyMDIuMDQ2MzQiIGN4PSItMjYxLjgxMzg0IiBpZD0icGF0aDc3Ny01My0zLTctOC0yLTEtOTAtNy02LTktNCIgc3R5bGU9ImZpbGw6IzRkNGQ0ZDtzdHJva2U6IzAwMDAwMDtzdHJva2Utd2lkdGg6MC4yMDc7c3Ryb2tlLWRhc2hhcnJheTpub25lO3N0cm9rZS1vcGFjaXR5OjEiLz4mI3hhOyAgICAgIDxjaXJjbGUgdHJhbnNmb3JtPSJyb3RhdGUoLTEzMi4xMjkwMSkiIHI9IjEuMDc0MTQxNiIgY3k9IjIwNC4wOTE1OCIgY3g9Ii0yNjAuNjk2MDEiIGlkPSJwYXRoNzc3LTUzLTMtNy04LTItMS03LTMtNi0zLTYtMiIgc3R5bGU9ImZpbGw6IzRkNGQ0ZDtzdHJva2U6IzAwMDAwMDtzdHJva2Utd2lkdGg6MC4yMDc7c3Ryb2tlLWRhc2hhcnJheTpub25lO3N0cm9rZS1vcGFjaXR5OjEiLz4mI3hhOyAgICAgIDxjaXJjbGUgdHJhbnNmb3JtPSJyb3RhdGUoLTEzMi4xMjkwMSkiIHI9IjEuMDc0MTQxNiIgY3k9IjE5Mi41MTE1NCIgY3g9Ii0yNzUuOTkyMjIiIGlkPSJwYXRoNzc3LTUzLTMtNy04LTItMS00LTEtMi00LTgtMzEiIHN0eWxlPSJmaWxsOiM0ZDRkNGQ7c3Ryb2tlOiMwMDAwMDA7c3Ryb2tlLXdpZHRoOjAuMjA3O3N0cm9rZS1kYXNoYXJyYXk6bm9uZTtzdHJva2Utb3BhY2l0eToxIi8+JiN4YTsgICAgICA8Y2lyY2xlIHRyYW5zZm9ybT0icm90YXRlKC0xMzIuMTI5MDEpIiByPSIxLjA3NDE0MTYiIGN5PSIxOTkuMTgwOTEiIGN4PSItMjY1LjI1OTc3IiBpZD0icGF0aDc3Ny01My0zLTctOC0yLTEtNDMtMS05LTEtNi0yIiBzdHlsZT0iZmlsbDojNGQ0ZDRkO3N0cm9rZTojMDAwMDAwO3N0cm9rZS13aWR0aDowLjIwNztzdHJva2UtZGFzaGFycmF5Om5vbmU7c3Ryb2tlLW9wYWNpdHk6MSIvPiYjeGE7ICAgICAgPGNpcmNsZSB0cmFuc2Zvcm09InJvdGF0ZSgtMTMyLjEyOTAxKSIgcj0iMS4wNzQxNDE2IiBjeT0iMjAwLjU2Njc2IiBjeD0iLTI2My41NzMyNyIgaWQ9InBhdGg3NzctNTMtMy03LTgtMi0xLTAtNS0xLTktOS0xIiBzdHlsZT0iZmlsbDojNGQ0ZDRkO3N0cm9rZTojMDAwMDAwO3N0cm9rZS13aWR0aDowLjIwNztzdHJva2UtZGFzaGFycmF5Om5vbmU7c3Ryb2tlLW9wYWNpdHk6MSIvPiYjeGE7ICAgICAgPGNpcmNsZSB0cmFuc2Zvcm09InJvdGF0ZSgtMTMyLjEyOTAxKSIgcj0iMS4wNzQxNDE2IiBjeT0iMTk2LjI2NDc3IiBjeD0iLTI2OC4yNzQ2MyIgaWQ9InBhdGg3NzctNTMtMy03LTgtMi0xLTc5LTMtNC01LTUtMiIgc3R5bGU9ImZpbGw6IzRkNGQ0ZDtzdHJva2U6IzAwMDAwMDtzdHJva2Utd2lkdGg6MC4yMDc7c3Ryb2tlLWRhc2hhcnJheTpub25lO3N0cm9rZS1vcGFjaXR5OjEiLz4mI3hhOyAgICAgIDxjaXJjbGUgdHJhbnNmb3JtPSJyb3RhdGUoLTEzMi4xMjkwMSkiIHI9IjEuMDc0MTQxNiIgY3k9IjE5Ny44ODUyNSIgY3g9Ii0yNjYuOTkyOTIiIGlkPSJwYXRoNzc3LTUzLTMtNy04LTItMS05LTktMS05LTktNSIgc3R5bGU9ImZpbGw6IzRkNGQ0ZDtzdHJva2U6IzAwMDAwMDtzdHJva2Utd2lkdGg6MC4yMDc7c3Ryb2tlLWRhc2hhcnJheTpub25lO3N0cm9rZS1vcGFjaXR5OjEiLz4mI3hhOyAgICAgIDxjaXJjbGUgdHJhbnNmb3JtPSJyb3RhdGUoLTEzMi4xMjkwMSkiIHI9IjEuMDc0MTQxNiIgY3k9IjE5NS4yMzMxMiIgY3g9Ii0yNzAuMzY5NDIiIGlkPSJwYXRoNzc3LTUzLTMtNy04LTItMS05NC02LTItOC02LTYiIHN0eWxlPSJmaWxsOiM0ZDRkNGQ7c3Ryb2tlOiMwMDAwMDA7c3Ryb2tlLXdpZHRoOjAuMjA3O3N0cm9rZS1kYXNoYXJyYXk6bm9uZTtzdHJva2Utb3BhY2l0eToxIi8+JiN4YTsgICAgICA8Y2lyY2xlIHRyYW5zZm9ybT0icm90YXRlKC0xMzIuMTI5MDEpIiByPSIxLjA3NDE0MTYiIGN5PSIxOTMuNTIxNTEiIGN4PSItMjc0LjA5NTczIiBpZD0icGF0aDc3Ny01My0zLTctOC0yLTEtNDEtMy01LTgtOC00IiBzdHlsZT0iZmlsbDojNGQ0ZDRkO3N0cm9rZTojMDAwMDAwO3N0cm9rZS13aWR0aDowLjIwNztzdHJva2UtZGFzaGFycmF5Om5vbmU7c3Ryb2tlLW9wYWNpdHk6MSIvPiYjeGE7ICAgICAgPGNpcmNsZSB0cmFuc2Zvcm09InJvdGF0ZSgtMTMyLjEyOTAxKSIgcj0iMS4wNzQxNDE2IiBjeT0iMTk0LjIyMzE4IiBjeD0iLTI3Mi4yNjU5IiBpZD0icGF0aDc3Ny01My0zLTctOC0yLTEtMi0xLTAtOC02LTgiIHN0eWxlPSJmaWxsOiM0ZDRkNGQ7c3Ryb2tlOiMwMDAwMDA7c3Ryb2tlLXdpZHRoOjAuMjA3O3N0cm9rZS1kYXNoYXJyYXk6bm9uZTtzdHJva2Utb3BhY2l0eToxIi8+JiN4YTsgICAgPC9nPiYjeGE7ICAgIDxnIHRyYW5zZm9ybT0icm90YXRlKDQ3LjYzODYwMiwyNjQuNzE2NjcsMTM2LjA0MzQzKSIgaWQ9Imc0NjI4Ij4mI3hhOyAgICAgIDxjaXJjbGUgdHJhbnNmb3JtPSJyb3RhdGUoLTUxLjIzNjA2OCkiIHI9IjEuMDc0MTQxNiIgY3k9IjE3Ni4zNTUyNyIgY3g9IjM3LjExODg1OCIgaWQ9InBhdGg3NzctNTMtMy03LTgtMi00LTEtNC03LTkiIHN0eWxlPSJmaWxsOiNmZjU1NTU7c3Ryb2tlOiMwMDAwMDA7c3Ryb2tlLXdpZHRoOjAuMjA3O3N0cm9rZS1kYXNoYXJyYXk6bm9uZTtzdHJva2Utb3BhY2l0eToxIi8+JiN4YTsgICAgICA8Y2lyY2xlIHRyYW5zZm9ybT0icm90YXRlKC01MS4yMzYwNjgpIiByPSIxLjA3NDE0MTYiIGN5PSIxNzcuNzcyNzgiIGN4PSIzMi44NTU2MSIgaWQ9InBhdGg3NzctNTMtMy03LTgtMi0yLTctMy0yLTMtNCIgc3R5bGU9ImZpbGw6I2ZmNTU1NTtzdHJva2U6IzAwMDAwMDtzdHJva2Utd2lkdGg6MC4yMDc7c3Ryb2tlLWRhc2hhcnJheTpub25lO3N0cm9rZS1vcGFjaXR5OjEiLz4mI3hhOyAgICAgIDxjaXJjbGUgdHJhbnNmb3JtPSJyb3RhdGUoLTUxLjIzNjA2OCkiIHI9IjEuMDc0MTQxNiIgY3k9IjE3Ny4xMDc4OSIgY3g9IjM1LjAzNTQ1OCIgaWQ9InBhdGg3NzctNTMtMy03LTgtMi01LTMtMC02LTgtNyIgc3R5bGU9ImZpbGw6I2ZmNTU1NTtzdHJva2U6IzAwMDAwMDtzdHJva2Utd2lkdGg6MC4yMDc7c3Ryb2tlLWRhc2hhcnJheTpub25lO3N0cm9rZS1vcGFjaXR5OjEiLz4mI3hhOyAgICAgIDxjaXJjbGUgdHJhbnNmb3JtPSJyb3RhdGUoLTUxLjIzNjA2OCkiIHI9IjEuMDc0MTQxNiIgY3k9IjE3Ny43MzI3MyIgY3g9IjMwLjY1MjQ1NCIgaWQ9InBhdGg3NzctNTMtMy03LTgtMi0wLTAtOC03LTgtNiIgc3R5bGU9ImZpbGw6I2ZmNTU1NTtzdHJva2U6IzAwMDAwMDtzdHJva2Utd2lkdGg6MC4yMDc7c3Ryb2tlLWRhc2hhcnJheTpub25lO3N0cm9rZS1vcGFjaXR5OjEiLz4mI3hhOyAgICAgIDxjaXJjbGUgdHJhbnNmb3JtPSJyb3RhdGUoNjEuMTUzMjUyKSIgcj0iMS4wNzQxNDE2IiBjeT0iLTg0Ljk5MTg4MiIgY3g9IjE3MC42OTY0NiIgaWQ9InBhdGg3NzctNTMtMy03LTgtMi0xLTkwLTctNi05LTgiIHN0eWxlPSJmaWxsOiM0ZDRkNGQ7c3Ryb2tlOiMwMDAwMDA7c3Ryb2tlLXdpZHRoOjAuMjA3O3N0cm9rZS1kYXNoYXJyYXk6bm9uZTtzdHJva2Utb3BhY2l0eToxIi8+JiN4YTsgICAgICA8Y2lyY2xlIHRyYW5zZm9ybT0icm90YXRlKC01MS4yMzYwNjgpIiByPSIxLjA3NDE0MTYiIGN5PSIxNzguODU5MjUiIGN4PSIyOS4wMjQyMjkiIGlkPSJwYXRoNzc3LTUzLTMtNy04LTItMS03LTMtNi0zLTYtMSIgc3R5bGU9ImZpbGw6IzRkNGQ0ZDtzdHJva2U6IzAwMDAwMDtzdHJva2Utd2lkdGg6MC4yMDc7c3Ryb2tlLWRhc2hhcnJheTpub25lO3N0cm9rZS1vcGFjaXR5OjEiLz4mI3hhOyAgICAgIDxjaXJjbGUgdHJhbnNmb3JtPSJyb3RhdGUoNjEuMTUzMjUyKSIgcj0iMS4wNzQxNDE2IiBjeT0iLTk0LjEwODIwOCIgY3g9IjE1Ni4xMzk1NiIgaWQ9InBhdGg3NzctNTMtMy03LTgtMi0xLTQtMS0yLTQtOC0zIiBzdHlsZT0iZmlsbDojNGQ0ZDRkO3N0cm9rZTojMDAwMDAwO3N0cm9rZS13aWR0aDowLjIwNztzdHJva2UtZGFzaGFycmF5Om5vbmU7c3Ryb2tlLW9wYWNpdHk6MSIvPiYjeGE7ICAgICAgPGNpcmNsZSB0cmFuc2Zvcm09InJvdGF0ZSg2MS4xNTMyNTIpIiByPSIxLjA3NDE0MTYiIGN5PSItODcuNTYzNDMxIiBjeD0iMTY3LjM2NTExIiBpZD0icGF0aDc3Ny01My0zLTctOC0yLTEtNDMtMS05LTEtNi04IiBzdHlsZT0iZmlsbDojNGQ0ZDRkO3N0cm9rZTojMDAwMDAwO3N0cm9rZS13aWR0aDowLjIwNztzdHJva2UtZGFzaGFycmF5Om5vbmU7c3Ryb2tlLW9wYWNpdHk6MSIvPiYjeGE7ICAgICAgPGNpcmNsZSB0cmFuc2Zvcm09InJvdGF0ZSg2MS4xNTMyNTIpIiByPSIxLjA3NDE0MTYiIGN5PSItODYuMzc2ODE2IiBjeD0iMTY5LjA0MTYzIiBpZD0icGF0aDc3Ny01My0zLTctOC0yLTEtMC01LTEtOS05LTAiIHN0eWxlPSJmaWxsOiM0ZDRkNGQ7c3Ryb2tlOiMwMDAwMDA7c3Ryb2tlLXdpZHRoOjAuMjA3O3N0cm9rZS1kYXNoYXJyYXk6bm9uZTtzdHJva2Utb3BhY2l0eToxIi8+JiN4YTsgICAgICA8Y2lyY2xlIHRyYW5zZm9ybT0icm90YXRlKDYxLjE1MzI1MikiIHI9IjEuMDc0MTQxNiIgY3k9Ii05MC4zNTQ5NjUiIGN4PSIxNjMuODU3MTUiIGlkPSJwYXRoNzc3LTUzLTMtNy04LTItMS03OS0zLTQtNS01LTgiIHN0eWxlPSJmaWxsOiM0ZDRkNGQ7c3Ryb2tlOiMwMDAwMDA7c3Ryb2tlLXdpZHRoOjAuMjA3O3N0cm9rZS1kYXNoYXJyYXk6bm9uZTtzdHJva2Utb3BhY2l0eToxIi8+JiN4YTsgICAgICA8Y2lyY2xlIHRyYW5zZm9ybT0icm90YXRlKDYxLjE1MzI1MikiIHI9IjEuMDc0MTQxNiIgY3k9Ii04OS4wNTgzNTciIGN4PSIxNjUuNjIxOTYiIGlkPSJwYXRoNzc3LTUzLTMtNy04LTItMS05LTktMS05LTktMSIgc3R5bGU9ImZpbGw6IzRkNGQ0ZDtzdHJva2U6IzAwMDAwMDtzdHJva2Utd2lkdGg6MC4yMDc7c3Ryb2tlLWRhc2hhcnJheTpub25lO3N0cm9rZS1vcGFjaXR5OjEiLz4mI3hhOyAgICAgIDxjaXJjbGUgdHJhbnNmb3JtPSJyb3RhdGUoNjEuMTUzMjUyKSIgcj0iMS4wNzQxNDE2IiBjeT0iLTkxLjM4NjYwNCIgY3g9IjE2MS43NjIzNiIgaWQ9InBhdGg3NzctNTMtMy03LTgtMi0xLTk0LTYtMi04LTYtMSIgc3R5bGU9ImZpbGw6IzRkNGQ0ZDtzdHJva2U6IzAwMDAwMDtzdHJva2Utd2lkdGg6MC4yMDc7c3Ryb2tlLWRhc2hhcnJheTpub25lO3N0cm9rZS1vcGFjaXR5OjEiLz4mI3hhOyAgICAgIDxjaXJjbGUgdHJhbnNmb3JtPSJyb3RhdGUoNjEuMTUzMjUyKSIgcj0iMS4wNzQxNDE2IiBjeT0iLTkzLjA5ODIzNiIgY3g9IjE1OC4wMzYwNCIgaWQ9InBhdGg3NzctNTMtMy03LTgtMi0xLTQxLTMtNS04LTgtOCIgc3R5bGU9ImZpbGw6IzRkNGQ0ZDtzdHJva2U6IzAwMDAwMDtzdHJva2Utd2lkdGg6MC4yMDc7c3Ryb2tlLWRhc2hhcnJheTpub25lO3N0cm9rZS1vcGFjaXR5OjEiLz4mI3hhOyAgICAgIDxjaXJjbGUgdHJhbnNmb3JtPSJyb3RhdGUoNjEuMTUzMjUyKSIgcj0iMS4wNzQxNDE2IiBjeT0iLTkyLjM5NjU2OCIgY3g9IjE1OS44NjU4OCIgaWQ9InBhdGg3NzctNTMtMy03LTgtMi0xLTItMS0wLTgtNi03IiBzdHlsZT0iZmlsbDojNGQ0ZDRkO3N0cm9rZTojMDAwMDAwO3N0cm9rZS13aWR0aDowLjIwNztzdHJva2UtZGFzaGFycmF5Om5vbmU7c3Ryb2tlLW9wYWNpdHk6MSIvPiYjeGE7ICAgIDwvZz4mI3hhOyAgICA8ZyB0cmFuc2Zvcm09InRyYW5zbGF0ZSgtNzIuMzY2NzA1LC0zLjEwMzQ0NTYpIiBpZD0iZzUwMDgiPiYjeGE7ICAgICAgPGNpcmNsZSB0cmFuc2Zvcm09InJvdGF0ZSgtMy41OTc0NjYpIiByPSIxLjA3NDE0MTYiIGN5PSI3OS43NTA3MzIiIGN4PSIzNDQuOTg3NDYiIGlkPSJwYXRoNzc3LTUzLTMtNy04LTItNC0xLTQtNy05LTAiIHN0eWxlPSJmaWxsOiNmZjU1NTU7c3Ryb2tlOiMwMDAwMDA7c3Ryb2tlLXdpZHRoOjAuMjA3O3N0cm9rZS1kYXNoYXJyYXk6bm9uZTtzdHJva2Utb3BhY2l0eToxIi8+JiN4YTsgICAgICA8Y2lyY2xlIHRyYW5zZm9ybT0icm90YXRlKC0zLjU5NzQ2NikiIHI9IjEuMDc0MTQxNiIgY3k9IjgxLjE2ODI0MyIgY3g9IjM0MC43MjQyMSIgaWQ9InBhdGg3NzctNTMtMy03LTgtMi0yLTctMy0yLTMtNC03IiBzdHlsZT0iZmlsbDojZmY1NTU1O3N0cm9rZTojMDAwMDAwO3N0cm9rZS13aWR0aDowLjIwNztzdHJva2UtZGFzaGFycmF5Om5vbmU7c3Ryb2tlLW9wYWNpdHk6MSIvPiYjeGE7ICAgICAgPGNpcmNsZSB0cmFuc2Zvcm09InJvdGF0ZSgtMy41OTc0NjYpIiByPSIxLjA3NDE0MTYiIGN5PSI4MC41MDMzNTciIGN4PSIzNDIuOTA0MDUiIGlkPSJwYXRoNzc3LTUzLTMtNy04LTItNS0zLTAtNi04LTctNSIgc3R5bGU9ImZpbGw6I2ZmNTU1NTtzdHJva2U6IzAwMDAwMDtzdHJva2Utd2lkdGg6MC4yMDc7c3Ryb2tlLWRhc2hhcnJheTpub25lO3N0cm9rZS1vcGFjaXR5OjEiLz4mI3hhOyAgICAgIDxjaXJjbGUgdHJhbnNmb3JtPSJyb3RhdGUoLTMuNTk3NDY2KSIgcj0iMS4wNzQxNDE2IiBjeT0iODEuMTI4MTg5IiBjeD0iMzM4LjUyMTA2IiBpZD0icGF0aDc3Ny01My0zLTctOC0yLTAtMC04LTctOC02LTAiIHN0eWxlPSJmaWxsOiNmZjU1NTU7c3Ryb2tlOiMwMDAwMDA7c3Ryb2tlLXdpZHRoOjAuMjA3O3N0cm9rZS1kYXNoYXJyYXk6bm9uZTtzdHJva2Utb3BhY2l0eToxIi8+JiN4YTsgICAgPC9nPiYjeGE7ICAgIDxnIHRyYW5zZm9ybT0idHJhbnNsYXRlKC03My45MTg0MjgsLTM3LjI0MTM0NikiIGlkPSJnNTAzOSI+JiN4YTsgICAgICA8Y2lyY2xlIHRyYW5zZm9ybT0icm90YXRlKC0zLjU5NzQ2NikiIHI9IjEuMDc0MTQxNiIgY3k9Ijk0LjU3NTk4OSIgY3g9IjM0Mi42ODkxNSIgaWQ9InBhdGg3NzctNTMtMy03LTgtMi00LTEtNC03LTktMC01IiBzdHlsZT0iZmlsbDojZmY1NTU1O3N0cm9rZTojMDAwMDAwO3N0cm9rZS13aWR0aDowLjIwNztzdHJva2UtZGFzaGFycmF5Om5vbmU7c3Ryb2tlLW9wYWNpdHk6MSIvPiYjeGE7ICAgICAgPGNpcmNsZSB0cmFuc2Zvcm09InJvdGF0ZSgtMy41OTc0NjYpIiByPSIxLjA3NDE0MTYiIGN5PSI5MC44MDI4ODciIGN4PSIzNDEuMjk2NDUiIGlkPSJwYXRoNzc3LTUzLTMtNy04LTItMi03LTMtMi0zLTQtNy05IiBzdHlsZT0iZmlsbDojZmY1NTU1O3N0cm9rZTojMDAwMDAwO3N0cm9rZS13aWR0aDowLjIwNztzdHJva2UtZGFzaGFycmF5Om5vbmU7c3Ryb2tlLW9wYWNpdHk6MSIvPiYjeGE7ICAgICAgPGNpcmNsZSB0cmFuc2Zvcm09InJvdGF0ZSgtMy41OTc0NjYpIiByPSIxLjA3NDE0MTYiIGN5PSI5Mi40OTU5ODciIGN4PSIzNDIuNzYyNjYiIGlkPSJwYXRoNzc3LTUzLTMtNy04LTItNS0zLTAtNi04LTctNS0yIiBzdHlsZT0iZmlsbDojZmY1NTU1O3N0cm9rZTojMDAwMDAwO3N0cm9rZS13aWR0aDowLjIwNztzdHJva2UtZGFzaGFycmF5Om5vbmU7c3Ryb2tlLW9wYWNpdHk6MSIvPiYjeGE7ICAgICAgPGNpcmNsZSB0cmFuc2Zvcm09InJvdGF0ZSgtMy41OTc0NjYpIiByPSIxLjA3NDE0MTYiIGN5PSI5MC43NjI4MzMiIGN4PSIzMzkuMDkzMjkiIGlkPSJwYXRoNzc3LTUzLTMtNy04LTItMC0wLTgtNy04LTYtMC04IiBzdHlsZT0iZmlsbDojZmY1NTU1O3N0cm9rZTojMDAwMDAwO3N0cm9rZS13aWR0aDowLjIwNztzdHJva2UtZGFzaGFycmF5Om5vbmU7c3Ryb2tlLW9wYWNpdHk6MSIvPiYjeGE7ICAgIDwvZz4mI3hhOyAgICA8ZyB0cmFuc2Zvcm09InRyYW5zbGF0ZSgtODguMTY2MDY0LC0zMi4zMDQwNDYpIiBpZD0iZzUwNDUiPiYjeGE7ICAgICAgPGNpcmNsZSB0cmFuc2Zvcm09InJvdGF0ZSgtMy41OTc0NjYpIiByPSIxLjA3NDE0MTYiIGN5PSI5Ny43NTA1OCIgY3g9IjM0Ny40MzY2MSIgaWQ9InBhdGg3NzctNTMtMy03LTgtMi00LTEtNC03LTktMC01LTMiIHN0eWxlPSJmaWxsOiNmZjU1NTU7c3Ryb2tlOiMwMDAwMDA7c3Ryb2tlLXdpZHRoOjAuMjA3O3N0cm9rZS1kYXNoYXJyYXk6bm9uZTtzdHJva2Utb3BhY2l0eToxIi8+JiN4YTsgICAgICA8Y2lyY2xlIHRyYW5zZm9ybT0icm90YXRlKC0zLjU5NzQ2NikiIHI9IjEuMDc0MTQxNiIgY3k9Ijk5LjM2MjgxNiIgY3g9IjM0Ni4yNzA3MiIgaWQ9InBhdGg3NzctNTMtMy03LTgtMi0yLTctMy0yLTMtNC03LTktNyIgc3R5bGU9ImZpbGw6I2ZmNTU1NTtzdHJva2U6IzAwMDAwMDtzdHJva2Utd2lkdGg6MC4yMDc7c3Ryb2tlLWRhc2hhcnJheTpub25lO3N0cm9rZS1vcGFjaXR5OjEiLz4mI3hhOyAgICAgIDxjaXJjbGUgdHJhbnNmb3JtPSJyb3RhdGUoLTMuNTk3NDY2KSIgcj0iMS4wNzQxNDE2IiBjeT0iOTYuMTcyNjA3IiBjeD0iMzQ4Ljc1MDY3IiBpZD0icGF0aDc3Ny01My0zLTctOC0yLTUtMy0wLTYtOC03LTUtMi02IiBzdHlsZT0iZmlsbDojZmY1NTU1O3N0cm9rZTojMDAwMDAwO3N0cm9rZS13aWR0aDowLjIwNztzdHJva2UtZGFzaGFycmF5Om5vbmU7c3Ryb2tlLW9wYWNpdHk6MSIvPiYjeGE7ICAgICAgPGNpcmNsZSB0cmFuc2Zvcm09InJvdGF0ZSgtMy41OTc0NjYpIiByPSIxLjA3NDE0MTYiIGN5PSI5OS4zMjI3NjIiIGN4PSIzNDQuMDY3NTciIGlkPSJwYXRoNzc3LTUzLTMtNy04LTItMC0wLTgtNy04LTYtMC04LTIiIHN0eWxlPSJmaWxsOiNmZjU1NTU7c3Ryb2tlOiMwMDAwMDA7c3Ryb2tlLXdpZHRoOjAuMjA3O3N0cm9rZS1kYXNoYXJyYXk6bm9uZTtzdHJva2Utb3BhY2l0eToxIi8+JiN4YTsgICAgPC9nPiYjeGE7ICAgIDxnIHRyYW5zZm9ybT0idHJhbnNsYXRlKC01NS4yOTc3NTUsLTIyLjk5MzcwOSkiIGlkPSJnNTAxNCI+JiN4YTsgICAgICA8Y2lyY2xlIHRyYW5zZm9ybT0icm90YXRlKC0zLjU5NzQ2NikiIHI9IjEuMDc0MTQxNiIgY3k9IjEwNi4wMzc0NSIgY3g9IjMzOC42NzU2IiBpZD0icGF0aDc3Ny01My0zLTctOC0yLTQtMS00LTctOS0wLTUtMy05IiBzdHlsZT0iZmlsbDojZmY1NTU1O3N0cm9rZTojMDAwMDAwO3N0cm9rZS13aWR0aDowLjIwNztzdHJva2UtZGFzaGFycmF5Om5vbmU7c3Ryb2tlLW9wYWNpdHk6MSIvPiYjeGE7ICAgICAgPGNpcmNsZSB0cmFuc2Zvcm09InJvdGF0ZSgtMy41OTc0NjYpIiByPSIxLjA3NDE0MTYiIGN5PSIxMDcuNjQ5NjgiIGN4PSIzMzcuNTA5NyIgaWQ9InBhdGg3NzctNTMtMy03LTgtMi0yLTctMy0yLTMtNC03LTktNy04IiBzdHlsZT0iZmlsbDojZmY1NTU1O3N0cm9rZTojMDAwMDAwO3N0cm9rZS13aWR0aDowLjIwNztzdHJva2UtZGFzaGFycmF5Om5vbmU7c3Ryb2tlLW9wYWNpdHk6MSIvPiYjeGE7ICAgICAgPGNpcmNsZSB0cmFuc2Zvcm09InJvdGF0ZSgtMy41OTc0NjYpIiByPSIxLjA3NDE0MTYiIGN5PSIxMDQuNDU5NDkiIGN4PSIzMzkuOTg5NjUiIGlkPSJwYXRoNzc3LTUzLTMtNy04LTItNS0zLTAtNi04LTctNS0yLTYtNSIgc3R5bGU9ImZpbGw6I2ZmNTU1NTtzdHJva2U6IzAwMDAwMDtzdHJva2Utd2lkdGg6MC4yMDc7c3Ryb2tlLWRhc2hhcnJheTpub25lO3N0cm9rZS1vcGFjaXR5OjEiLz4mI3hhOyAgICAgIDxjaXJjbGUgdHJhbnNmb3JtPSJyb3RhdGUoLTMuNTk3NDY2KSIgcj0iMS4wNzQxNDE2IiBjeT0iMTA5Ljc0ODgzIiBjeD0iMzM3Ljg1NzYiIGlkPSJwYXRoNzc3LTUzLTMtNy04LTItMC0wLTgtNy04LTYtMC04LTItOSIgc3R5bGU9ImZpbGw6I2ZmNTU1NTtzdHJva2U6IzAwMDAwMDtzdHJva2Utd2lkdGg6MC4yMDc7c3Ryb2tlLWRhc2hhcnJheTpub25lO3N0cm9rZS1vcGFjaXR5OjEiLz4mI3hhOyAgICA8L2c+JiN4YTsgICAgPGcgdHJhbnNmb3JtPSJ0cmFuc2xhdGUoLTQ3Ljk2MjMzOSwtMzYuMjUzODg2KSIgaWQ9Imc1MDI2Ij4mI3hhOyAgICAgIDxjaXJjbGUgdHJhbnNmb3JtPSJyb3RhdGUoLTMuNTk3NDY2KSIgcj0iMS4wNzQxNDE2IiBjeT0iMTA1LjkzMDQ3IiBjeD0iMzMwLjIyOTU4IiBpZD0icGF0aDc3Ny01My0zLTctOC0yLTQtMS00LTctOS0wLTUtMy05LTIiIHN0eWxlPSJmaWxsOiNmZjU1NTU7c3Ryb2tlOiMwMDAwMDA7c3Ryb2tlLXdpZHRoOjAuMjA3O3N0cm9rZS1kYXNoYXJyYXk6bm9uZTtzdHJva2Utb3BhY2l0eToxIi8+JiN4YTsgICAgICA8Y2lyY2xlIHRyYW5zZm9ybT0icm90YXRlKC0zLjU5NzQ2NikiIHI9IjEuMDc0MTQxNiIgY3k9IjEwNy41NDI3MSIgY3g9IjMyOS4wNjM2OSIgaWQ9InBhdGg3NzctNTMtMy03LTgtMi0yLTctMy0yLTMtNC03LTktNy04LTUiIHN0eWxlPSJmaWxsOiNmZjU1NTU7c3Ryb2tlOiMwMDAwMDA7c3Ryb2tlLXdpZHRoOjAuMjA3O3N0cm9rZS1kYXNoYXJyYXk6bm9uZTtzdHJva2Utb3BhY2l0eToxIi8+JiN4YTsgICAgICA8Y2lyY2xlIHRyYW5zZm9ybT0icm90YXRlKC0zLjU5NzQ2NikiIHI9IjEuMDc0MTQxNiIgY3k9IjEwMy45MjkzMyIgY3g9IjMyOS4zMDg3NSIgaWQ9InBhdGg3NzctNTMtMy03LTgtMi01LTMtMC02LTgtNy01LTItNi01LTUiIHN0eWxlPSJmaWxsOiNmZjU1NTU7c3Ryb2tlOiMwMDAwMDA7c3Ryb2tlLXdpZHRoOjAuMjA3O3N0cm9rZS1kYXNoYXJyYXk6bm9uZTtzdHJva2Utb3BhY2l0eToxIi8+JiN4YTsgICAgICA8Y2lyY2xlIHRyYW5zZm9ybT0icm90YXRlKC0zLjU5NzQ2NikiIHI9IjEuMDc0MTQxNiIgY3k9IjEwNy4yMjk5MyIgY3g9IjMyNy4wMTkwNCIgaWQ9InBhdGg3NzctNTMtMy03LTgtMi0wLTAtOC03LTgtNi0wLTgtMi05LTkiIHN0eWxlPSJmaWxsOiNmZjU1NTU7c3Ryb2tlOiMwMDAwMDA7c3Ryb2tlLXdpZHRoOjAuMjA3O3N0cm9rZS1kYXNoYXJyYXk6bm9uZTtzdHJva2Utb3BhY2l0eToxIi8+JiN4YTsgICAgPC9nPiYjeGE7ICAgIDxnIHRyYW5zZm9ybT0icm90YXRlKDIzLjU3MDg4OSwzMjcuNDI3NCwtNTguMTM4NDcyKSIgaWQ9Imc1MTcxIj4mI3hhOyAgICAgIDxjaXJjbGUgdHJhbnNmb3JtPSJyb3RhdGUoMTA4Ljc5MTg1KSIgcj0iMS4wNzQxNDE2IiBjeT0iLTMxOC4zNTE0MSIgY3g9Ii0zNi45MTcxNjgiIGlkPSJwYXRoNzc3LTUzLTMtNy04LTItMS05MC03LTYtOS04LTIiIHN0eWxlPSJmaWxsOiM0ZDRkNGQ7c3Ryb2tlOiMwMDAwMDA7c3Ryb2tlLXdpZHRoOjAuMjA3O3N0cm9rZS1kYXNoYXJyYXk6bm9uZTtzdHJva2Utb3BhY2l0eToxIi8+JiN4YTsgICAgICA8Y2lyY2xlIHRyYW5zZm9ybT0icm90YXRlKC0zLjU5NzQ2NikiIHI9IjEuMDc0MTQxNiIgY3k9Ijc1Ljc4MjMyNiIgY3g9IjMyMy44NzIwNCIgaWQ9InBhdGg3NzctNTMtMy03LTgtMi0xLTctMy02LTMtNi0xLTU0IiBzdHlsZT0iZmlsbDojNGQ0ZDRkO3N0cm9rZTojMDAwMDAwO3N0cm9rZS13aWR0aDowLjIwNztzdHJva2UtZGFzaGFycmF5Om5vbmU7c3Ryb2tlLW9wYWNpdHk6MSIvPiYjeGE7ICAgICAgPGNpcmNsZSB0cmFuc2Zvcm09InJvdGF0ZSgxMDguNzkxODUpIiByPSIxLjA3NDE0MTYiIGN5PSItMzI3LjQ2Nzc0IiBjeD0iLTUxLjQ3NDA2OCIgaWQ9InBhdGg3NzctNTMtMy03LTgtMi0xLTQtMS0yLTQtOC0zLTIiIHN0eWxlPSJmaWxsOiM0ZDRkNGQ7c3Ryb2tlOiMwMDAwMDA7c3Ryb2tlLXdpZHRoOjAuMjA3O3N0cm9rZS1kYXNoYXJyYXk6bm9uZTtzdHJva2Utb3BhY2l0eToxIi8+JiN4YTsgICAgICA8Y2lyY2xlIHRyYW5zZm9ybT0icm90YXRlKDEwOC43OTE4NSkiIHI9IjEuMDc0MTQxNiIgY3k9Ii0zMjAuOTIyOTQiIGN4PSItNDAuMjQ4NTEyIiBpZD0icGF0aDc3Ny01My0zLTctOC0yLTEtNDMtMS05LTEtNi04LTEiIHN0eWxlPSJmaWxsOiM0ZDRkNGQ7c3Ryb2tlOiMwMDAwMDA7c3Ryb2tlLXdpZHRoOjAuMjA3O3N0cm9rZS1kYXNoYXJyYXk6bm9uZTtzdHJva2Utb3BhY2l0eToxIi8+JiN4YTsgICAgICA8Y2lyY2xlIHRyYW5zZm9ybT0icm90YXRlKDEwOC43OTE4NSkiIHI9IjEuMDc0MTQxNiIgY3k9Ii0zMTkuNzM2MzMiIGN4PSItMzguNTcxOTk5IiBpZD0icGF0aDc3Ny01My0zLTctOC0yLTEtMC01LTEtOS05LTAtNSIgc3R5bGU9ImZpbGw6IzRkNGQ0ZDtzdHJva2U6IzAwMDAwMDtzdHJva2Utd2lkdGg6MC4yMDc7c3Ryb2tlLWRhc2hhcnJheTpub25lO3N0cm9rZS1vcGFjaXR5OjEiLz4mI3hhOyAgICAgIDxjaXJjbGUgdHJhbnNmb3JtPSJyb3RhdGUoMTA4Ljc5MTg1KSIgcj0iMS4wNzQxNDE2IiBjeT0iLTMyMy43MTQ0OCIgY3g9Ii00My43NTY0NzciIGlkPSJwYXRoNzc3LTUzLTMtNy04LTItMS03OS0zLTQtNS01LTgtMSIgc3R5bGU9ImZpbGw6IzRkNGQ0ZDtzdHJva2U6IzAwMDAwMDtzdHJva2Utd2lkdGg6MC4yMDc7c3Ryb2tlLWRhc2hhcnJheTpub25lO3N0cm9rZS1vcGFjaXR5OjEiLz4mI3hhOyAgICAgIDxjaXJjbGUgdHJhbnNmb3JtPSJyb3RhdGUoMTA4Ljc5MTg1KSIgcj0iMS4wNzQxNDE2IiBjeT0iLTMyMi40MTc4OCIgY3g9Ii00MS45OTE2NjEiIGlkPSJwYXRoNzc3LTUzLTMtNy04LTItMS05LTktMS05LTktMS02IiBzdHlsZT0iZmlsbDojNGQ0ZDRkO3N0cm9rZTojMDAwMDAwO3N0cm9rZS13aWR0aDowLjIwNztzdHJva2UtZGFzaGFycmF5Om5vbmU7c3Ryb2tlLW9wYWNpdHk6MSIvPiYjeGE7ICAgICAgPGNpcmNsZSB0cmFuc2Zvcm09InJvdGF0ZSgxMDguNzkxODUpIiByPSIxLjA3NDE0MTYiIGN5PSItMzI0Ljc0NjEyIiBjeD0iLTQ1Ljg1MTI2NSIgaWQ9InBhdGg3NzctNTMtMy03LTgtMi0xLTk0LTYtMi04LTYtMS0wIiBzdHlsZT0iZmlsbDojNGQ0ZDRkO3N0cm9rZTojMDAwMDAwO3N0cm9rZS13aWR0aDowLjIwNztzdHJva2UtZGFzaGFycmF5Om5vbmU7c3Ryb2tlLW9wYWNpdHk6MSIvPiYjeGE7ICAgICAgPGNpcmNsZSB0cmFuc2Zvcm09InJvdGF0ZSgxMDguNzkxODUpIiByPSIxLjA3NDE0MTYiIGN5PSItMzI2LjQ1Nzc2IiBjeD0iLTQ5LjU3NzU4MyIgaWQ9InBhdGg3NzctNTMtMy03LTgtMi0xLTQxLTMtNS04LTgtOC0wIiBzdHlsZT0iZmlsbDojNGQ0ZDRkO3N0cm9rZTojMDAwMDAwO3N0cm9rZS13aWR0aDowLjIwNztzdHJva2UtZGFzaGFycmF5Om5vbmU7c3Ryb2tlLW9wYWNpdHk6MSIvPiYjeGE7ICAgICAgPGNpcmNsZSB0cmFuc2Zvcm09InJvdGF0ZSgxMDguNzkxODUpIiByPSIxLjA3NDE0MTYiIGN5PSItMzI1Ljc1NjEiIGN4PSItNDcuNzQ3NzQ5IiBpZD0icGF0aDc3Ny01My0zLTctOC0yLTEtMi0xLTAtOC02LTctMjMiIHN0eWxlPSJmaWxsOiM0ZDRkNGQ7c3Ryb2tlOiMwMDAwMDA7c3Ryb2tlLXdpZHRoOjAuMjA3O3N0cm9rZS1kYXNoYXJyYXk6bm9uZTtzdHJva2Utb3BhY2l0eToxIi8+JiN4YTsgICAgPC9nPiYjeGE7ICAgIDxnIHRyYW5zZm9ybT0icm90YXRlKDY4LjMxMTkwNSwzMTYuMzk3MzEsMTEuOTAxMjMpIiBpZD0iZzUzMzgiPiYjeGE7ICAgICAgPGNpcmNsZSB0cmFuc2Zvcm09InJvdGF0ZSgxMDguNzkxODUpIiByPSIxLjA3NDE0MTYiIGN5PSItMzQxLjg4MjI2IiBjeD0iLTMwLjQxOTE4OSIgaWQ9InBhdGg3NzctNTMtMy03LTgtMi0xLTkwLTctNi05LTgtMi0yIiBzdHlsZT0iZmlsbDojNGQ0ZDRkO3N0cm9rZTojMDAwMDAwO3N0cm9rZS13aWR0aDowLjIwNztzdHJva2UtZGFzaGFycmF5Om5vbmU7c3Ryb2tlLW9wYWNpdHk6MSIvPiYjeGE7ICAgICAgPGNpcmNsZSB0cmFuc2Zvcm09InJvdGF0ZSgtMy41OTc0NjYpIiByPSIxLjA3NDE0MTYiIGN5PSI5MC43NTMzMjYiIGN4PSIzNDMuMTU0MDIiIGlkPSJwYXRoNzc3LTUzLTMtNy04LTItMS03LTMtNi0zLTYtMS01NC02IiBzdHlsZT0iZmlsbDojNGQ0ZDRkO3N0cm9rZTojMDAwMDAwO3N0cm9rZS13aWR0aDowLjIwNztzdHJva2UtZGFzaGFycmF5Om5vbmU7c3Ryb2tlLW9wYWNpdHk6MSIvPiYjeGE7ICAgICAgPGNpcmNsZSB0cmFuc2Zvcm09InJvdGF0ZSgxMDguNzkxODUpIiByPSIxLjA3NDE0MTYiIGN5PSItMzUwLjk5ODYiIGN4PSItNDQuOTc2MDg5IiBpZD0icGF0aDc3Ny01My0zLTctOC0yLTEtNC0xLTItNC04LTMtMi0zIiBzdHlsZT0iZmlsbDojNGQ0ZDRkO3N0cm9rZTojMDAwMDAwO3N0cm9rZS13aWR0aDowLjIwNztzdHJva2UtZGFzaGFycmF5Om5vbmU7c3Ryb2tlLW9wYWNpdHk6MSIvPiYjeGE7ICAgICAgPGNpcmNsZSB0cmFuc2Zvcm09InJvdGF0ZSgxMDguNzkxODUpIiByPSIxLjA3NDE0MTYiIGN5PSItMzQ0LjQ1MzgiIGN4PSItMzMuNzUwNTM0IiBpZD0icGF0aDc3Ny01My0zLTctOC0yLTEtNDMtMS05LTEtNi04LTEtNiIgc3R5bGU9ImZpbGw6IzRkNGQ0ZDtzdHJva2U6IzAwMDAwMDtzdHJva2Utd2lkdGg6MC4yMDc7c3Ryb2tlLWRhc2hhcnJheTpub25lO3N0cm9rZS1vcGFjaXR5OjEiLz4mI3hhOyAgICAgIDxjaXJjbGUgdHJhbnNmb3JtPSJyb3RhdGUoMTA4Ljc5MTg1KSIgcj0iMS4wNzQxNDE2IiBjeT0iLTM0My4yNjcxOCIgY3g9Ii0zMi4wNzQwMiIgaWQ9InBhdGg3NzctNTMtMy03LTgtMi0xLTAtNS0xLTktOS0wLTUtOSIgc3R5bGU9ImZpbGw6IzRkNGQ0ZDtzdHJva2U6IzAwMDAwMDtzdHJva2Utd2lkdGg6MC4yMDc7c3Ryb2tlLWRhc2hhcnJheTpub25lO3N0cm9rZS1vcGFjaXR5OjEiLz4mI3hhOyAgICAgIDxjaXJjbGUgdHJhbnNmb3JtPSJyb3RhdGUoMTA4Ljc5MTg1KSIgcj0iMS4wNzQxNDE2IiBjeT0iLTM0Ny4yNDUzMyIgY3g9Ii0zNy4yNTg0OTkiIGlkPSJwYXRoNzc3LTUzLTMtNy04LTItMS03OS0zLTQtNS01LTgtMS0xIiBzdHlsZT0iZmlsbDojNGQ0ZDRkO3N0cm9rZTojMDAwMDAwO3N0cm9rZS13aWR0aDowLjIwNztzdHJva2UtZGFzaGFycmF5Om5vbmU7c3Ryb2tlLW9wYWNpdHk6MSIvPiYjeGE7ICAgICAgPGNpcmNsZSB0cmFuc2Zvcm09InJvdGF0ZSgxMDguNzkxODUpIiByPSIxLjA3NDE0MTYiIGN5PSItMzQ1Ljk0ODczIiBjeD0iLTM1LjQ5MzY4MyIgaWQ9InBhdGg3NzctNTMtMy03LTgtMi0xLTktOS0xLTktOS0xLTYtMCIgc3R5bGU9ImZpbGw6IzRkNGQ0ZDtzdHJva2U6IzAwMDAwMDtzdHJva2Utd2lkdGg6MC4yMDc7c3Ryb2tlLWRhc2hhcnJheTpub25lO3N0cm9rZS1vcGFjaXR5OjEiLz4mI3hhOyAgICAgIDxjaXJjbGUgdHJhbnNmb3JtPSJyb3RhdGUoMTA4Ljc5MTg1KSIgcj0iMS4wNzQxNDE2IiBjeT0iLTM0OC4yNzY5OCIgY3g9Ii0zOS4zNTMyODciIGlkPSJwYXRoNzc3LTUzLTMtNy04LTItMS05NC02LTItOC02LTEtMC00IiBzdHlsZT0iZmlsbDojNGQ0ZDRkO3N0cm9rZTojMDAwMDAwO3N0cm9rZS13aWR0aDowLjIwNztzdHJva2UtZGFzaGFycmF5Om5vbmU7c3Ryb2tlLW9wYWNpdHk6MSIvPiYjeGE7ICAgICAgPGNpcmNsZSB0cmFuc2Zvcm09InJvdGF0ZSgxMDguNzkxODUpIiByPSIxLjA3NDE0MTYiIGN5PSItMzQ5Ljk4ODYyIiBjeD0iLTQzLjA3OTYwNSIgaWQ9InBhdGg3NzctNTMtMy03LTgtMi0xLTQxLTMtNS04LTgtOC0wLTUiIHN0eWxlPSJmaWxsOiM0ZDRkNGQ7c3Ryb2tlOiMwMDAwMDA7c3Ryb2tlLXdpZHRoOjAuMjA3O3N0cm9rZS1kYXNoYXJyYXk6bm9uZTtzdHJva2Utb3BhY2l0eToxIi8+JiN4YTsgICAgICA8Y2lyY2xlIHRyYW5zZm9ybT0icm90YXRlKDEwOC43OTE4NSkiIHI9IjEuMDc0MTQxNiIgY3k9Ii0zNDkuMjg2OTYiIGN4PSItNDEuMjQ5NzcxIiBpZD0icGF0aDc3Ny01My0zLTctOC0yLTEtMi0xLTAtOC02LTctMjMtOCIgc3R5bGU9ImZpbGw6IzRkNGQ0ZDtzdHJva2U6IzAwMDAwMDtzdHJva2Utd2lkdGg6MC4yMDc7c3Ryb2tlLWRhc2hhcnJheTpub25lO3N0cm9rZS1vcGFjaXR5OjEiLz4mI3hhOyAgICA8L2c+JiN4YTsgICAgPGcgdHJhbnNmb3JtPSJyb3RhdGUoLTE5LjQ1OTI4NywyMTkuMDQ4NDgsMjMzLjkwOTA4KSIgaWQ9Imc1MzUwIj4mI3hhOyAgICAgIDxjaXJjbGUgdHJhbnNmb3JtPSJyb3RhdGUoMTA4Ljc5MTg1KSIgcj0iMS4wNzQxNDE2IiBjeT0iLTM0NC44Mjc2NCIgY3g9Ii0yMy4wNzY5MjciIGlkPSJwYXRoNzc3LTUzLTMtNy04LTItMS05MC03LTYtOS04LTItMjEiIHN0eWxlPSJmaWxsOiM0ZDRkNGQ7c3Ryb2tlOiMwMDAwMDA7c3Ryb2tlLXdpZHRoOjAuMjA3O3N0cm9rZS1kYXNoYXJyYXk6bm9uZTtzdHJva2Utb3BhY2l0eToxIi8+JiN4YTsgICAgICA8Y2lyY2xlIHRyYW5zZm9ybT0icm90YXRlKC0zLjU5NzQ2NikiIHI9IjEuMDc0MTQxNiIgY3k9IjEwNi40NDI3MyIgY3g9IjM0My4xNTcwMSIgaWQ9InBhdGg3NzctNTMtMy03LTgtMi0xLTctMy02LTMtNi0xLTU0LTYwIiBzdHlsZT0iZmlsbDojNGQ0ZDRkO3N0cm9rZTojMDAwMDAwO3N0cm9rZS13aWR0aDowLjIwNztzdHJva2UtZGFzaGFycmF5Om5vbmU7c3Ryb2tlLW9wYWNpdHk6MSIvPiYjeGE7ICAgICAgPGNpcmNsZSB0cmFuc2Zvcm09InJvdGF0ZSgxMDguNzkxODUpIiByPSIxLjA3NDE0MTYiIGN5PSItMzU2Ljk3NzQ1IiBjeD0iLTMwLjQ3MDU1NCIgaWQ9InBhdGg3NzctNTMtMy03LTgtMi0xLTQtMS0yLTQtOC0zLTItOCIgc3R5bGU9ImZpbGw6IzRkNGQ0ZDtzdHJva2U6IzAwMDAwMDtzdHJva2Utd2lkdGg6MC4yMDc7c3Ryb2tlLWRhc2hhcnJheTpub25lO3N0cm9rZS1vcGFjaXR5OjEiLz4mI3hhOyAgICAgIDxjaXJjbGUgdHJhbnNmb3JtPSJyb3RhdGUoMTA4Ljc5MTg1KSIgcj0iMS4wNzQxNDE2IiBjeT0iLTM0Ny44NTA4IiBjeD0iLTI1LjUxODg5IiBpZD0icGF0aDc3Ny01My0zLTctOC0yLTEtNDMtMS05LTEtNi04LTEtNCIgc3R5bGU9ImZpbGw6IzRkNGQ0ZDtzdHJva2U6IzAwMDAwMDtzdHJva2Utd2lkdGg6MC4yMDc7c3Ryb2tlLWRhc2hhcnJheTpub25lO3N0cm9rZS1vcGFjaXR5OjEiLz4mI3hhOyAgICAgIDxjaXJjbGUgdHJhbnNmb3JtPSJyb3RhdGUoMTA4Ljc5MTg1KSIgcj0iMS4wNzQxNDE2IiBjeT0iLTM0Ni4wMzM1NyIgY3g9Ii0yNC44MTk4NjIiIGlkPSJwYXRoNzc3LTUzLTMtNy04LTItMS0wLTUtMS05LTktMC01LTc4IiBzdHlsZT0iZmlsbDojNGQ0ZDRkO3N0cm9rZTojMDAwMDAwO3N0cm9rZS13aWR0aDowLjIwNztzdHJva2UtZGFzaGFycmF5Om5vbmU7c3Ryb2tlLW9wYWNpdHk6MSIvPiYjeGE7ICAgICAgPGNpcmNsZSB0cmFuc2Zvcm09InJvdGF0ZSgxMDguNzkxODUpIiByPSIxLjA3NDE0MTYiIGN5PSItMzQ5Ljk1MTM5IiBjeD0iLTI1LjM2NDU1MyIgaWQ9InBhdGg3NzctNTMtMy03LTgtMi0xLTc5LTMtNC01LTUtOC0xLTE3IiBzdHlsZT0iZmlsbDojNGQ0ZDRkO3N0cm9rZTojMDAwMDAwO3N0cm9rZS13aWR0aDowLjIwNztzdHJva2UtZGFzaGFycmF5Om5vbmU7c3Ryb2tlLW9wYWNpdHk6MSIvPiYjeGE7ICAgICAgPGNpcmNsZSB0cmFuc2Zvcm09InJvdGF0ZSgxMDguNzkxODUpIiByPSIxLjA3NDE0MTYiIGN5PSItMzUyLjE3MjQyIiBjeD0iLTI0LjY0NzY3MyIgaWQ9InBhdGg3NzctNTMtMy03LTgtMi0xLTktOS0xLTktOS0xLTYtMDQiIHN0eWxlPSJmaWxsOiM0ZDRkNGQ7c3Ryb2tlOiMwMDAwMDA7c3Ryb2tlLXdpZHRoOjAuMjA3O3N0cm9rZS1kYXNoYXJyYXk6bm9uZTtzdHJva2Utb3BhY2l0eToxIi8+JiN4YTsgICAgICA8Y2lyY2xlIHRyYW5zZm9ybT0icm90YXRlKDEwOC43OTE4NSkiIHI9IjEuMDc0MTQxNiIgY3k9Ii0zNTQuMjU1ODMiIGN4PSItMjQuODQ3NzUyIiBpZD0icGF0aDc3Ny01My0zLTctOC0yLTEtOTQtNi0yLTgtNi0xLTAtNiIgc3R5bGU9ImZpbGw6IzRkNGQ0ZDtzdHJva2U6IzAwMDAwMDtzdHJva2Utd2lkdGg6MC4yMDc7c3Ryb2tlLWRhc2hhcnJheTpub25lO3N0cm9rZS1vcGFjaXR5OjEiLz4mI3hhOyAgICAgIDxjaXJjbGUgcj0iMS4wNzQxNDE2IiB0cmFuc2Zvcm09InJvdGF0ZSgxMDguNzkxODUpIiBjeT0iLTM1Ni45NTA1MyIgY3g9Ii0yOC4zMTI1MzQiIGlkPSJwYXRoNzc3LTUzLTMtNy04LTItMS00MS0zLTUtOC04LTgtMC05IiBzdHlsZT0iZmlsbDojNGQ0ZDRkO3N0cm9rZTojMDAwMDAwO3N0cm9rZS13aWR0aDowLjIwNztzdHJva2UtZGFzaGFycmF5Om5vbmU7c3Ryb2tlLW9wYWNpdHk6MSIvPiYjeGE7ICAgICAgPGNpcmNsZSB0cmFuc2Zvcm09InJvdGF0ZSgxMDguNzkxODUpIiByPSIxLjA3NDE0MTYiIGN5PSItMzU1LjI2NTgxIiBjeD0iLTI2Ljc0NDIzNiIgaWQ9InBhdGg3NzctNTMtMy03LTgtMi0xLTItMS0wLTgtNi03LTIzLTUiIHN0eWxlPSJmaWxsOiM0ZDRkNGQ7c3Ryb2tlOiMwMDAwMDA7c3Ryb2tlLXdpZHRoOjAuMjA3O3N0cm9rZS1kYXNoYXJyYXk6bm9uZTtzdHJva2Utb3BhY2l0eToxIi8+JiN4YTsgICAgPC9nPiYjeGE7ICAgIDxnIHRyYW5zZm9ybT0ibWF0cml4KC0xLDAuMDk1OTkyMTIsMCwxLDU5NS4xNTYxOSwtNTEuMzU4OTU2KSIgaWQ9Imc1MzI2Ij4mI3hhOyAgICAgIDxjaXJjbGUgdHJhbnNmb3JtPSJyb3RhdGUoMTA4Ljc5MTg1KSIgcj0iMS4wNzQxNDE2IiBjeT0iLTMxMy41NjcwOCIgY3g9Ii00MC41MDE2NTkiIGlkPSJwYXRoNzc3LTUzLTMtNy04LTItMS05MC03LTYtOS04LTItMjEtMzUiIHN0eWxlPSJmaWxsOiM0ZDRkNGQ7c3Ryb2tlOiMwMDAwMDA7c3Ryb2tlLXdpZHRoOjAuMjA3O3N0cm9rZS1kYXNoYXJyYXk6bm9uZTtzdHJva2Utb3BhY2l0eToxIi8+JiN4YTsgICAgICA8Y2lyY2xlIHRyYW5zZm9ybT0icm90YXRlKC0zLjU5NzQ2NikiIHI9IjEuMDc0MTQxNiIgY3k9Ijc4LjQyNDQ0NiIgY3g9IjMyMC44OTAwMSIgaWQ9InBhdGg3NzctNTMtMy03LTgtMi0xLTctMy02LTMtNi0xLTU0LTYwLTgiIHN0eWxlPSJmaWxsOiM0ZDRkNGQ7c3Ryb2tlOiMwMDAwMDA7c3Ryb2tlLXdpZHRoOjAuMjA3O3N0cm9rZS1kYXNoYXJyYXk6bm9uZTtzdHJva2Utb3BhY2l0eToxIi8+JiN4YTsgICAgICA8Y2lyY2xlIHRyYW5zZm9ybT0icm90YXRlKDEwOC43OTE4NSkiIHI9IjEuMDc0MTQxNiIgY3k9Ii0zMjUuNzE2ODkiIGN4PSItNDcuODk1Mjg3IiBpZD0icGF0aDc3Ny01My0zLTctOC0yLTEtNC0xLTItNC04LTMtMi04LTEiIHN0eWxlPSJmaWxsOiM0ZDRkNGQ7c3Ryb2tlOiMwMDAwMDA7c3Ryb2tlLXdpZHRoOjAuMjA3O3N0cm9rZS1kYXNoYXJyYXk6bm9uZTtzdHJva2Utb3BhY2l0eToxIi8+JiN4YTsgICAgICA8Y2lyY2xlIHRyYW5zZm9ybT0icm90YXRlKDEwOC43OTE4NSkiIHI9IjEuMDc0MTQxNiIgY3k9Ii0zMTYuNTkwMjQiIGN4PSItNDIuOTQzNjIzIiBpZD0icGF0aDc3Ny01My0zLTctOC0yLTEtNDMtMS05LTEtNi04LTEtNC04IiBzdHlsZT0iZmlsbDojNGQ0ZDRkO3N0cm9rZTojMDAwMDAwO3N0cm9rZS13aWR0aDowLjIwNztzdHJva2UtZGFzaGFycmF5Om5vbmU7c3Ryb2tlLW9wYWNpdHk6MSIvPiYjeGE7ICAgICAgPGNpcmNsZSB0cmFuc2Zvcm09InJvdGF0ZSgxMDguNzkxODUpIiByPSIxLjA3NDE0MTYiIGN5PSItMzE0Ljc3MzAxIiBjeD0iLTQyLjI0NDU5NSIgaWQ9InBhdGg3NzctNTMtMy03LTgtMi0xLTAtNS0xLTktOS0wLTUtNzgtMTEiIHN0eWxlPSJmaWxsOiM0ZDRkNGQ7c3Ryb2tlOiMwMDAwMDA7c3Ryb2tlLXdpZHRoOjAuMjA3O3N0cm9rZS1kYXNoYXJyYXk6bm9uZTtzdHJva2Utb3BhY2l0eToxIi8+JiN4YTsgICAgICA8Y2lyY2xlIHRyYW5zZm9ybT0icm90YXRlKDEwOC43OTE4NSkiIHI9IjEuMDc0MTQxNiIgY3k9Ii0zMTguNjkwODMiIGN4PSItNDIuNzg5Mjg4IiBpZD0icGF0aDc3Ny01My0zLTctOC0yLTEtNzktMy00LTUtNS04LTEtMTctMyIgc3R5bGU9ImZpbGw6IzRkNGQ0ZDtzdHJva2U6IzAwMDAwMDtzdHJva2Utd2lkdGg6MC4yMDc7c3Ryb2tlLWRhc2hhcnJheTpub25lO3N0cm9rZS1vcGFjaXR5OjEiLz4mI3hhOyAgICAgIDxjaXJjbGUgdHJhbnNmb3JtPSJyb3RhdGUoMTA4Ljc5MTg1KSIgcj0iMS4wNzQxNDE2IiBjeT0iLTMyMC45MTE4NyIgY3g9Ii00Mi4wNzI0MDciIGlkPSJwYXRoNzc3LTUzLTMtNy04LTItMS05LTktMS05LTktMS02LTA0LTAiIHN0eWxlPSJmaWxsOiM0ZDRkNGQ7c3Ryb2tlOiMwMDAwMDA7c3Ryb2tlLXdpZHRoOjAuMjA3O3N0cm9rZS1kYXNoYXJyYXk6bm9uZTtzdHJva2Utb3BhY2l0eToxIi8+JiN4YTsgICAgICA8Y2lyY2xlIHRyYW5zZm9ybT0icm90YXRlKDEwOC43OTE4NSkiIHI9IjEuMDc0MTQxNiIgY3k9Ii0zMjIuOTk1MjciIGN4PSItNDIuMjcyNDg0IiBpZD0icGF0aDc3Ny01My0zLTctOC0yLTEtOTQtNi0yLTgtNi0xLTAtNi03IiBzdHlsZT0iZmlsbDojNGQ0ZDRkO3N0cm9rZTojMDAwMDAwO3N0cm9rZS13aWR0aDowLjIwNztzdHJva2UtZGFzaGFycmF5Om5vbmU7c3Ryb2tlLW9wYWNpdHk6MSIvPiYjeGE7ICAgICAgPGNpcmNsZSByPSIxLjA3NDE0MTYiIHRyYW5zZm9ybT0icm90YXRlKDEwOC43OTE4NSkiIGN5PSItMzI1LjY4OTk3IiBjeD0iLTQ1LjczNzI2NyIgaWQ9InBhdGg3NzctNTMtMy03LTgtMi0xLTQxLTMtNS04LTgtOC0wLTktMjMiIHN0eWxlPSJmaWxsOiM0ZDRkNGQ7c3Ryb2tlOiMwMDAwMDA7c3Ryb2tlLXdpZHRoOjAuMjA3O3N0cm9rZS1kYXNoYXJyYXk6bm9uZTtzdHJva2Utb3BhY2l0eToxIi8+JiN4YTsgICAgICA8Y2lyY2xlIHRyYW5zZm9ybT0icm90YXRlKDEwOC43OTE4NSkiIHI9IjEuMDc0MTQxNiIgY3k9Ii0zMjQuMDA1MjUiIGN4PSItNDQuMTY4OTY4IiBpZD0icGF0aDc3Ny01My0zLTctOC0yLTEtMi0xLTAtOC02LTctMjMtNS01IiBzdHlsZT0iZmlsbDojNGQ0ZDRkO3N0cm9rZTojMDAwMDAwO3N0cm9rZS13aWR0aDowLjIwNztzdHJva2UtZGFzaGFycmF5Om5vbmU7c3Ryb2tlLW9wYWNpdHk6MSIvPiYjeGE7ICAgIDwvZz4mI3hhOyAgICA8ZyB0cmFuc2Zvcm09InRyYW5zbGF0ZSgtNjcuMTQ3Mjc1LC0zMy41NzM2MzcpIiBpZD0iZzUwNTciPiYjeGE7ICAgICAgPGNpcmNsZSB0cmFuc2Zvcm09InJvdGF0ZSgxMDguNzkxODUpIiByPSIxLjA3NDE0MTYiIGN5PSItMzMzLjAyMDAyIiBjeD0iLTI3Ljk5OTY2OCIgaWQ9InBhdGg3NzctNTMtMy03LTgtMi0xLTkwLTctNi05LTgtMi0wIiBzdHlsZT0iZmlsbDojNGQ0ZDRkO3N0cm9rZTojMDAwMDAwO3N0cm9rZS13aWR0aDowLjIwNztzdHJva2UtZGFzaGFycmF5Om5vbmU7c3Ryb2tlLW9wYWNpdHk6MSIvPiYjeGE7ICAgICAgPGNpcmNsZSB0cmFuc2Zvcm09InJvdGF0ZSgtMy41OTc0NjYpIiByPSIxLjA3NDE0MTYiIGN5PSI4NS41NTYwMzgiIGN4PSIzMjcuOTMyODkiIGlkPSJwYXRoNzc3LTUzLTMtNy04LTItMS03LTMtNi0zLTYtMS01NC01IiBzdHlsZT0iZmlsbDojNGQ0ZDRkO3N0cm9rZTojMDAwMDAwO3N0cm9rZS13aWR0aDowLjIwNztzdHJva2UtZGFzaGFycmF5Om5vbmU7c3Ryb2tlLW9wYWNpdHk6MSIvPiYjeGE7ICAgICAgPGNpcmNsZSB0cmFuc2Zvcm09InJvdGF0ZSgxMDguNzkxODUpIiByPSIxLjA3NDE0MTYiIGN5PSItMzM0Ljk0NTI4IiBjeD0iLTQzLjk4Mzg5OCIgaWQ9InBhdGg3NzctNTMtMy03LTgtMi0xLTQtMS0yLTQtOC0zLTItMCIgc3R5bGU9ImZpbGw6IzRkNGQ0ZDtzdHJva2U6IzAwMDAwMDtzdHJva2Utd2lkdGg6MC4yMDc7c3Ryb2tlLWRhc2hhcnJheTpub25lO3N0cm9rZS1vcGFjaXR5OjEiLz4mI3hhOyAgICAgIDxjaXJjbGUgdHJhbnNmb3JtPSJyb3RhdGUoMTA4Ljc5MTg1KSIgcj0iMS4wNzQxNDE2IiBjeT0iLTMzMi42NTM1MyIgY3g9Ii0zMC4zMzEzMDEiIGlkPSJwYXRoNzc3LTUzLTMtNy04LTItMS00My0xLTktMS02LTgtMS01IiBzdHlsZT0iZmlsbDojNGQ0ZDRkO3N0cm9rZTojMDAwMDAwO3N0cm9rZS13aWR0aDowLjIwNztzdHJva2UtZGFzaGFycmF5Om5vbmU7c3Ryb2tlLW9wYWNpdHk6MSIvPiYjeGE7ICAgICAgPGNpcmNsZSB0cmFuc2Zvcm09InJvdGF0ZSgxMDguNzkxODUpIiByPSIxLjA3NDE0MTYiIGN5PSItMzMyLjk1OTE0IiBjeD0iLTMyLjU4OTczNyIgaWQ9InBhdGg3NzctNTMtMy03LTgtMi0xLTAtNS0xLTktOS0wLTUtNyIgc3R5bGU9ImZpbGw6IzRkNGQ0ZDtzdHJva2U6IzAwMDAwMDtzdHJva2Utd2lkdGg6MC4yMDc7c3Ryb2tlLWRhc2hhcnJheTpub25lO3N0cm9rZS1vcGFjaXR5OjEiLz4mI3hhOyAgICAgIDxjaXJjbGUgdHJhbnNmb3JtPSJyb3RhdGUoMTA4Ljc5MTg1KSIgcj0iMS4wNzQxNDE2IiBjeT0iLTMzMi4yMTc3MSIgY3g9Ii0zNi4zMTczMDciIGlkPSJwYXRoNzc3LTUzLTMtNy04LTItMS03OS0zLTQtNS01LTgtMS00IiBzdHlsZT0iZmlsbDojNGQ0ZDRkO3N0cm9rZTojMDAwMDAwO3N0cm9rZS13aWR0aDowLjIwNztzdHJva2UtZGFzaGFycmF5Om5vbmU7c3Ryb2tlLW9wYWNpdHk6MSIvPiYjeGE7ICAgICAgPGNpcmNsZSB0cmFuc2Zvcm09InJvdGF0ZSgxMDguNzkxODUpIiByPSIxLjA3NDE0MTYiIGN5PSItMzMzLjE1MTUyIiBjeD0iLTM0LjU2NjM4MyIgaWQ9InBhdGg3NzctNTMtMy03LTgtMi0xLTktOS0xLTktOS0xLTYtOCIgc3R5bGU9ImZpbGw6IzRkNGQ0ZDtzdHJva2U6IzAwMDAwMDtzdHJva2Utd2lkdGg6MC4yMDc7c3Ryb2tlLWRhc2hhcnJheTpub25lO3N0cm9rZS1vcGFjaXR5OjEiLz4mI3hhOyAgICAgIDxjaXJjbGUgdHJhbnNmb3JtPSJyb3RhdGUoMTA4Ljc5MTg1KSIgcj0iMS4wNzQxNDE2IiBjeT0iLTMzMi4yMjM2NiIgY3g9Ii0zOC4zNjEwOTUiIGlkPSJwYXRoNzc3LTUzLTMtNy04LTItMS05NC02LTItOC02LTEtMC0wIiBzdHlsZT0iZmlsbDojNGQ0ZDRkO3N0cm9rZTojMDAwMDAwO3N0cm9rZS13aWR0aDowLjIwNztzdHJva2UtZGFzaGFycmF5Om5vbmU7c3Ryb2tlLW9wYWNpdHk6MSIvPiYjeGE7ICAgICAgPGNpcmNsZSB0cmFuc2Zvcm09InJvdGF0ZSgxMDguNzkxODUpIiByPSIxLjA3NDE0MTYiIGN5PSItMzMzLjkzNTMiIGN4PSItNDIuMDg3NDE0IiBpZD0icGF0aDc3Ny01My0zLTctOC0yLTEtNDEtMy01LTgtOC04LTAtNiIgc3R5bGU9ImZpbGw6IzRkNGQ0ZDtzdHJva2U6IzAwMDAwMDtzdHJva2Utd2lkdGg6MC4yMDc7c3Ryb2tlLWRhc2hhcnJheTpub25lO3N0cm9rZS1vcGFjaXR5OjEiLz4mI3hhOyAgICAgIDxjaXJjbGUgdHJhbnNmb3JtPSJyb3RhdGUoMTA4Ljc5MTg1KSIgcj0iMS4wNzQxNDE2IiBjeT0iLTMzMy4yMzM2NCIgY3g9Ii00MC4yNTc1OCIgaWQ9InBhdGg3NzctNTMtMy03LTgtMi0xLTItMS0wLTgtNi03LTIzLTAiIHN0eWxlPSJmaWxsOiM0ZDRkNGQ7c3Ryb2tlOiMwMDAwMDA7c3Ryb2tlLXdpZHRoOjAuMjA3O3N0cm9rZS1kYXNoYXJyYXk6bm9uZTtzdHJva2Utb3BhY2l0eToxIi8+JiN4YTsgICAgPC9nPiYjeGE7ICAgIDxnIHRyYW5zZm9ybT0ibWF0cml4KDAuNjAzNjU2NDcsMC43Nzk3MzIyNiwwLjc5Nzc2NDU5LC0wLjYyNjExMzA5LDExMi41OTg4NSw5My42Mjk1ODIpIiBpZD0iZzQ0OTUiPiYjeGE7ICAgICAgPGNpcmNsZSByPSIxLjA3NDE0MTYiIGN5PSI3NC45NDA4OTUiIGN4PSIzMy4yMzYzOTciIGlkPSJwYXRoNzc3LTUzLTMtNy04LTItNC0xLTQtNy05LTYiIHN0eWxlPSJmaWxsOiNmZjU1NTU7c3Ryb2tlOiMwMDAwMDA7c3Ryb2tlLXdpZHRoOjAuMjA3O3N0cm9rZS1kYXNoYXJyYXk6bm9uZTtzdHJva2Utb3BhY2l0eToxIi8+JiN4YTsgICAgICA8Y2lyY2xlIHI9IjEuMDc0MTQxNiIgY3k9Ijc2LjM1ODQwNiIgY3g9IjI4Ljk3MzE1IiBpZD0icGF0aDc3Ny01My0zLTctOC0yLTItNy0zLTItMy00LTEiIHN0eWxlPSJmaWxsOiNmZjU1NTU7c3Ryb2tlOiMwMDAwMDA7c3Ryb2tlLXdpZHRoOjAuMjA3O3N0cm9rZS1kYXNoYXJyYXk6bm9uZTtzdHJva2Utb3BhY2l0eToxIi8+JiN4YTsgICAgICA8Y2lyY2xlIHI9IjEuMDc0MTQxNiIgY3k9Ijc1LjY5MzUxMiIgY3g9IjMxLjE1Mjk5OCIgaWQ9InBhdGg3NzctNTMtMy03LTgtMi01LTMtMC02LTgtNy04IiBzdHlsZT0iZmlsbDojZmY1NTU1O3N0cm9rZTojMDAwMDAwO3N0cm9rZS13aWR0aDowLjIwNztzdHJva2UtZGFzaGFycmF5Om5vbmU7c3Ryb2tlLW9wYWNpdHk6MSIvPiYjeGE7ICAgICAgPGNpcmNsZSByPSIxLjA3NDE0MTYiIGN5PSI3Ni4zMTgzNDQiIGN4PSIyNi43Njk5OTUiIGlkPSJwYXRoNzc3LTUzLTMtNy04LTItMC0wLTgtNy04LTYtOCIgc3R5bGU9ImZpbGw6I2ZmNTU1NTtzdHJva2U6IzAwMDAwMDtzdHJva2Utd2lkdGg6MC4yMDc7c3Ryb2tlLWRhc2hhcnJheTpub25lO3N0cm9rZS1vcGFjaXR5OjEiLz4mI3hhOyAgICAgIDxjaXJjbGUgdHJhbnNmb3JtPSJyb3RhdGUoMTEyLjM4OTMyKSIgcj0iMS4wNzQxNDE2IiBjeT0iLTQyLjc3MzU1NiIgY3g9Ijc4LjQwNTgwNyIgaWQ9InBhdGg3NzctNTMtMy03LTgtMi0xLTkwLTctNi05LTgtMyIgc3R5bGU9ImZpbGw6IzRkNGQ0ZDtzdHJva2U6IzAwMDAwMDtzdHJva2Utd2lkdGg6MC4yMDc7c3Ryb2tlLWRhc2hhcnJheTpub25lO3N0cm9rZS1vcGFjaXR5OjEiLz4mI3hhOyAgICAgIDxjaXJjbGUgcj0iMS4wNzQxNDE2IiBjeT0iNzcuNDQ0ODc4IiBjeD0iMjUuMTQxNzY4IiBpZD0icGF0aDc3Ny01My0zLTctOC0yLTEtNy0zLTYtMy02LTEtNSIgc3R5bGU9ImZpbGw6IzRkNGQ0ZDtzdHJva2U6IzAwMDAwMDtzdHJva2Utd2lkdGg6MC4yMDc7c3Ryb2tlLWRhc2hhcnJheTpub25lO3N0cm9rZS1vcGFjaXR5OjEiLz4mI3hhOyAgICAgIDxjaXJjbGUgdHJhbnNmb3JtPSJyb3RhdGUoMTEyLjM4OTMyKSIgcj0iMS4wNzQxNDE2IiBjeT0iLTUxLjg4OTg4MSIgY3g9IjYzLjg0ODkwNyIgaWQ9InBhdGg3NzctNTMtMy03LTgtMi0xLTQtMS0yLTQtOC0zLTYiIHN0eWxlPSJmaWxsOiM0ZDRkNGQ7c3Ryb2tlOiMwMDAwMDA7c3Ryb2tlLXdpZHRoOjAuMjA3O3N0cm9rZS1kYXNoYXJyYXk6bm9uZTtzdHJva2Utb3BhY2l0eToxIi8+JiN4YTsgICAgICA8Y2lyY2xlIHRyYW5zZm9ybT0icm90YXRlKDExMi4zODkzMikiIHI9IjEuMDc0MTQxNiIgY3k9Ii00NS4zNDUxMDQiIGN4PSI3NS4wNzQ0NzEiIGlkPSJwYXRoNzc3LTUzLTMtNy04LTItMS00My0xLTktMS02LTgtOCIgc3R5bGU9ImZpbGw6IzRkNGQ0ZDtzdHJva2U6IzAwMDAwMDtzdHJva2Utd2lkdGg6MC4yMDc7c3Ryb2tlLWRhc2hhcnJheTpub25lO3N0cm9rZS1vcGFjaXR5OjEiLz4mI3hhOyAgICAgIDxjaXJjbGUgdHJhbnNmb3JtPSJyb3RhdGUoMTEyLjM4OTMyKSIgcj0iMS4wNzQxNDE2IiBjeT0iLTQ0LjE1ODQ4OSIgY3g9Ijc2Ljc1MDk3NyIgaWQ9InBhdGg3NzctNTMtMy03LTgtMi0xLTAtNS0xLTktOS0wLTgiIHN0eWxlPSJmaWxsOiM0ZDRkNGQ7c3Ryb2tlOiMwMDAwMDA7c3Ryb2tlLXdpZHRoOjAuMjA3O3N0cm9rZS1kYXNoYXJyYXk6bm9uZTtzdHJva2Utb3BhY2l0eToxIi8+JiN4YTsgICAgICA8Y2lyY2xlIHRyYW5zZm9ybT0icm90YXRlKDExMi4zODkzMikiIHI9IjEuMDc0MTQxNiIgY3k9Ii00OC4xMzY2MzkiIGN4PSI3MS41NjY1MDUiIGlkPSJwYXRoNzc3LTUzLTMtNy04LTItMS03OS0zLTQtNS01LTgtOSIgc3R5bGU9ImZpbGw6IzRkNGQ0ZDtzdHJva2U6IzAwMDAwMDtzdHJva2Utd2lkdGg6MC4yMDc7c3Ryb2tlLWRhc2hhcnJheTpub25lO3N0cm9rZS1vcGFjaXR5OjEiLz4mI3hhOyAgICAgIDxjaXJjbGUgdHJhbnNmb3JtPSJyb3RhdGUoMTEyLjM4OTMyKSIgcj0iMS4wNzQxNDE2IiBjeT0iLTQ2Ljg0MDAzMSIgY3g9IjczLjMzMTMyMiIgaWQ9InBhdGg3NzctNTMtMy03LTgtMi0xLTktOS0xLTktOS0xLTkiIHN0eWxlPSJmaWxsOiM0ZDRkNGQ7c3Ryb2tlOiMwMDAwMDA7c3Ryb2tlLXdpZHRoOjAuMjA3O3N0cm9rZS1kYXNoYXJyYXk6bm9uZTtzdHJva2Utb3BhY2l0eToxIi8+JiN4YTsgICAgICA8Y2lyY2xlIHRyYW5zZm9ybT0icm90YXRlKDExMi4zODkzMikiIHI9IjEuMDc0MTQxNiIgY3k9Ii00OS4xNjgyNzgiIGN4PSI2OS40NzE3MSIgaWQ9InBhdGg3NzctNTMtMy03LTgtMi0xLTk0LTYtMi04LTYtMS0zIiBzdHlsZT0iZmlsbDojNGQ0ZDRkO3N0cm9rZTojMDAwMDAwO3N0cm9rZS13aWR0aDowLjIwNztzdHJva2UtZGFzaGFycmF5Om5vbmU7c3Ryb2tlLW9wYWNpdHk6MSIvPiYjeGE7ICAgICAgPGNpcmNsZSB0cmFuc2Zvcm09InJvdGF0ZSgxMTIuMzg5MzIpIiByPSIxLjA3NDE0MTYiIGN5PSItNTAuODc5OTEiIGN4PSI2NS43NDUzOTkiIGlkPSJwYXRoNzc3LTUzLTMtNy04LTItMS00MS0zLTUtOC04LTgtNyIgc3R5bGU9ImZpbGw6IzRkNGQ0ZDtzdHJva2U6IzAwMDAwMDtzdHJva2Utd2lkdGg6MC4yMDc7c3Ryb2tlLWRhc2hhcnJheTpub25lO3N0cm9rZS1vcGFjaXR5OjEiLz4mI3hhOyAgICAgIDxjaXJjbGUgdHJhbnNmb3JtPSJyb3RhdGUoMTEyLjM4OTMyKSIgcj0iMS4wNzQxNDE2IiBjeT0iLTUwLjE3ODI0MiIgY3g9IjY3LjU3NTIyNiIgaWQ9InBhdGg3NzctNTMtMy03LTgtMi0xLTItMS0wLTgtNi03LTIiIHN0eWxlPSJmaWxsOiM0ZDRkNGQ7c3Ryb2tlOiMwMDAwMDA7c3Ryb2tlLXdpZHRoOjAuMjA3O3N0cm9rZS1kYXNoYXJyYXk6bm9uZTtzdHJva2Utb3BhY2l0eToxIi8+JiN4YTsgICAgPC9nPiYjeGE7ICAgIDx0ZXh0IHRyYW5zZm9ybT0icm90YXRlKC05MCkiIGlkPSJ0ZXh0NTYzMCIgeT0iMjQxLjMyNjI1IiB4PSItNzYuMDMwMDY3IiBzdHlsZT0iZm9udC1zdHlsZTpub3JtYWw7Zm9udC12YXJpYW50Om5vcm1hbDtmb250LXdlaWdodDpub3JtYWw7Zm9udC1zdHJldGNoOm5vcm1hbDtmb250LXNpemU6MjUuNHB4O2ZvbnQtZmFtaWx5OicuQXF1YSBLYW5hJzstaW5rc2NhcGUtZm9udC1zcGVjaWZpY2F0aW9uOicuQXF1YSBLYW5hJzt0ZXh0LWFsaWduOmNlbnRlcjt3cml0aW5nLW1vZGU6dmVydGljYWwtbHI7dGV4dC1hbmNob3I6bWlkZGxlO2ZpbGw6IzAwMDAwMDtzdHJva2U6IzAwMDAwMDtzdHJva2Utd2lkdGg6MC43NjgwMDE7c3Ryb2tlLWRhc2hhcnJheTpub25lO3N0cm9rZS1vcGFjaXR5OjEiIHhtbDpzcGFjZT0icHJlc2VydmUiPjx0c3BhbiB5PSIyNDEuMzI2MjUiIHg9Ii03Ni4wMzAwNjciIHN0eWxlPSJmaWxsOiMwMDAwMDA7c3Ryb2tlLXdpZHRoOjAuNzY4IiBpZD0idHNwYW41NjI4Ij5tc3BtczwvdHNwYW4+PC90ZXh0PiYjeGE7ICA8L2c+JiN4YTs8L3N2Zz4=;" parent="1" vertex="1">
          <mxGeometry x="37.5" y="-2.1337098754514727e-16" width="390.11" height="450" as="geometry" />
        </mxCell>
        <mxCell id="yvTvaHK7StXBv4bvej6U-10" value="&lt;font style=&quot;&quot;&gt;&lt;span style=&quot;font-size: 24px;&quot;&gt;Only a subset of functions are exported to the user in an effort to make the package API intuitive. &lt;/span&gt;&lt;br&gt;&lt;p style=&quot;margin: 0in; line-height: 32px;&quot; class=&quot;MsoNormal&quot;&gt;&lt;font style=&quot;font-size: 24px;&quot;&gt;Helper functions can be found in the helper_functions.R file name corresponding to the type of functions it assists with&lt;font face=&quot;Aptos, sans-serif&quot;&gt;.&lt;/font&gt;&lt;/font&gt;&lt;span style=&quot;font-family: Aptos, sans-serif; font-size: 12pt;&quot;&gt;&lt;/span&gt;&lt;/p&gt;&lt;/font&gt;" style="text;html=1;align=left;verticalAlign=middle;resizable=0;points=[];autosize=1;strokeColor=none;fillColor=none;" parent="1" vertex="1">
          <mxGeometry x="8" y="904.99" width="1280" height="80" as="geometry" />
        </mxCell>
        <mxCell id="f-1tB_Vws65RSubiHFYA-1" value="&lt;blockquote style=&quot;border: none; color: rgb(0, 0, 0); font-family: Helvetica; font-style: normal; font-variant-ligatures: normal; font-variant-caps: normal; font-weight: 400; letter-spacing: normal; orphans: 2; text-align: left; text-indent: 0px; text-transform: none; widows: 2; word-spacing: 0px; -webkit-text-stroke-width: 0px; text-decoration-thickness: initial; text-decoration-style: initial; text-decoration-color: initial; margin: 0px 0px 0px 40px; padding: 0px; font-size: 30px;&quot;&gt;&lt;b style=&quot;border-color: var(--border-color);&quot;&gt;&lt;font style=&quot;border-color: var(--border-color);&quot;&gt;iceLogo&lt;/font&gt;&lt;/b&gt;&lt;br&gt;&lt;/blockquote&gt;&lt;blockquote style=&quot;border: none; color: rgb(0, 0, 0); font-family: Helvetica; font-style: normal; font-variant-ligatures: normal; font-variant-caps: normal; letter-spacing: normal; orphans: 2; text-align: left; text-indent: 0px; text-transform: none; widows: 2; word-spacing: 0px; -webkit-text-stroke-width: 0px; text-decoration-thickness: initial; text-decoration-style: initial; text-decoration-color: initial; margin: 0px 0px 0px 40px; padding: 0px; font-size: 30px;&quot;&gt;&lt;span style=&quot;border-color: var(--border-color);&quot;&gt;&lt;font style=&quot;border-color: var(--border-color); font-size: 30px;&quot;&gt;-plot_icelogo()&lt;/font&gt;&lt;/span&gt;&lt;/blockquote&gt;&lt;blockquote style=&quot;border: none; color: rgb(0, 0, 0); font-family: Helvetica; font-style: normal; font-variant-ligatures: normal; font-variant-caps: normal; letter-spacing: normal; orphans: 2; text-align: left; text-indent: 0px; text-transform: none; widows: 2; word-spacing: 0px; -webkit-text-stroke-width: 0px; text-decoration-thickness: initial; text-decoration-style: initial; text-decoration-color: initial; margin: 0px 0px 0px 40px; padding: 0px; font-size: 30px;&quot;&gt;&lt;span style=&quot;border-color: var(--border-color);&quot;&gt;-plot_all_icelogos()&lt;/span&gt;&lt;/blockquote&gt;&lt;blockquote style=&quot;border: none; color: rgb(0, 0, 0); font-family: Helvetica; font-style: normal; font-variant-ligatures: normal; font-variant-caps: normal; font-weight: 400; letter-spacing: normal; orphans: 2; text-align: left; text-indent: 0px; text-transform: none; widows: 2; word-spacing: 0px; -webkit-text-stroke-width: 0px; text-decoration-thickness: initial; text-decoration-style: initial; text-decoration-color: initial; margin: 0px 0px 0px 40px; padding: 0px; font-size: 30px;&quot;&gt;&lt;b style=&quot;border-color: var(--border-color);&quot;&gt;&lt;font style=&quot;border-color: var(--border-color); font-size: 30px;&quot;&gt;&lt;br&gt;&lt;/font&gt;&lt;/b&gt;&lt;/blockquote&gt;&lt;blockquote style=&quot;border: none; color: rgb(0, 0, 0); font-family: Helvetica; font-style: normal; font-variant-ligatures: normal; font-variant-caps: normal; letter-spacing: normal; orphans: 2; text-align: left; text-indent: 0px; text-transform: none; widows: 2; word-spacing: 0px; -webkit-text-stroke-width: 0px; text-decoration-thickness: initial; text-decoration-style: initial; text-decoration-color: initial; margin: 0px 0px 0px 40px; padding: 0px; font-size: 30px;&quot;&gt;&lt;b&gt;Report&lt;/b&gt;&lt;/blockquote&gt;&lt;blockquote style=&quot;border: none; color: rgb(0, 0, 0); font-family: Helvetica; font-style: normal; font-variant-ligatures: normal; font-variant-caps: normal; letter-spacing: normal; orphans: 2; text-align: left; text-indent: 0px; text-transform: none; widows: 2; word-spacing: 0px; -webkit-text-stroke-width: 0px; text-decoration-thickness: initial; text-decoration-style: initial; text-decoration-color: initial; margin: 0px 0px 0px 40px; padding: 0px; font-size: 30px;&quot;&gt;-generate_report()&lt;/blockquote&gt;" style="text;whiteSpace=wrap;html=1;labelBackgroundColor=none;" parent="1" vertex="1">
          <mxGeometry x="1150" y="569.99" width="330" height="240" as="geometry" />
        </mxCell>
        <mxCell id="f-1tB_Vws65RSubiHFYA-2" value="&lt;blockquote style=&quot;margin: 0px 0px 0px 40px; border: none; padding: 0px; font-size: 30px;&quot;&gt;&lt;b style=&quot;&quot;&gt;&lt;font style=&quot;font-size: 30px;&quot;&gt;Quality control&lt;/font&gt;&lt;/b&gt;&lt;/blockquote&gt;&lt;blockquote style=&quot;margin: 0px 0px 0px 40px; border: none; padding: 0px; font-size: 30px;&quot;&gt;&lt;font style=&quot;font-size: 30px;&quot;&gt;- plot_nd_peptides()&lt;/font&gt;&lt;/blockquote&gt;&lt;blockquote style=&quot;margin: 0px 0px 0px 40px; border: none; padding: 0px; font-size: 30px;&quot;&gt;&lt;font style=&quot;font-size: 30px;&quot;&gt;- plot_qc_check()&lt;/font&gt;&lt;/blockquote&gt;&lt;blockquote style=&quot;margin: 0px 0px 0px 40px; border: none; padding: 0px; font-size: 30px;&quot;&gt;&lt;b style=&quot;background-color: initial;&quot;&gt;&lt;br&gt;&lt;/b&gt;&lt;/blockquote&gt;&lt;blockquote style=&quot;margin: 0px 0px 0px 40px; border: none; padding: 0px; font-size: 30px;&quot;&gt;&lt;span style=&quot;background-color: initial;&quot;&gt;&lt;b&gt;PCA&lt;/b&gt;&lt;/span&gt;&lt;/blockquote&gt;&lt;blockquote style=&quot;margin: 0px 0px 0px 40px; border: none; padding: 0px; font-size: 30px;&quot;&gt;&lt;span style=&quot;background-color: initial;&quot;&gt;-plot_volcano()&lt;/span&gt;&lt;br&gt;&lt;/blockquote&gt;&lt;blockquote style=&quot;margin: 0px 0px 0px 40px; border: none; padding: 0px; font-size: 30px;&quot;&gt;&lt;span style=&quot;background-color: initial;&quot;&gt;&lt;br&gt;&lt;/span&gt;&lt;/blockquote&gt;&lt;blockquote style=&quot;margin: 0px 0px 0px 40px; border: none; padding: 0px; font-size: 30px;&quot;&gt;&lt;span style=&quot;background-color: initial;&quot;&gt;&lt;b&gt;Heatmap&lt;/b&gt;&lt;/span&gt;&lt;/blockquote&gt;&lt;blockquote style=&quot;margin: 0px 0px 0px 40px; border: none; padding: 0px; font-size: 30px;&quot;&gt;&lt;span style=&quot;background-color: initial;&quot;&gt;- plot_heatmap()&lt;/span&gt;&lt;/blockquote&gt;&lt;blockquote style=&quot;margin: 0px 0px 0px 40px; border: none; padding: 0px; font-size: 30px;&quot;&gt;&lt;br&gt;&lt;/blockquote&gt;&lt;font style=&quot;font-size: 20px;&quot;&gt;&lt;font style=&quot;font-size: 20px;&quot;&gt;&lt;span style=&quot;background-color: initial;&quot;&gt;&lt;br style=&quot;&quot;&gt;&lt;/span&gt;&lt;br&gt;&lt;/font&gt;&lt;br&gt;&lt;/font&gt;" style="text;html=1;strokeColor=none;fillColor=none;align=left;verticalAlign=middle;whiteSpace=wrap;rounded=0;fontSize=10;container=0;" parent="1" vertex="1">
          <mxGeometry x="505.41" y="599.99" width="335" height="283.78" as="geometry" />
        </mxCell>
      </root>
    </mxGraphModel>
  </diagram>
</mxfile>
